<svg xmlns="http://www.w3.org/2000/svg" viewBox="0 0 96.04 94.39"><defs><style>.cls-1{fill:#82533b;}.cls-2{fill:#5c3a29;}.cls-3{fill:#402500;}.cls-4{fill:#65402d;}.cls-5{fill:#7a4e37;}.cls-6{fill:#548900;}.cls-7{fill:#3c6300;}.cls-8{fill:#497800;}.cls-9{fill:#5d9900;}.cls-10{opacity:0.05;}.cls-11{fill:#3b3835;}.cls-12{fill:#262523;}.cls-13{fill:#a3a1a0;}.cls-14{fill:#8e8c8b;}.cls-15{fill:#6e6c6b;}.cls-16{fill:#2d2d2d;}.cls-17{fill:#dedede;}.cls-18{fill:#81c9bb;}.cls-19{fill:#f0af7b;}.cls-20{fill:#8edece;}.cls-21{fill:#e4f2ef;}.cls-22{fill:#ebfffa;}.cls-23{fill:#d3e6e1;}.cls-24{fill:#fab780;}.cls-25{fill:#241303;}.cls-26{fill:#949494;}.cls-27{fill:#b0b0b0;}.cls-28{fill:#ffeccf;}.cls-29{fill:#c4b69f;}.cls-30{fill:#e6d5ba;}.cls-31{fill:#d3d3d3;}.cls-32{fill:#686868;}.cls-33{fill:#bababa;}.cls-34{fill:#9b9b9b;}.cls-35{fill:#58595b;}.cls-36{fill:#414042;}.cls-37{fill:#231f20;}.cls-38{fill:#2b2628;}.cls-39{fill:#f2f2f2;}.cls-40{fill:#e3e3e3;}.cls-41{fill:#e0e0e0;}.cls-42{fill:#d4d4d4;}.cls-43{fill:#b7b7b7;}.cls-44{fill:#c6c6c6;}.cls-45{fill:#bfbfbf;}.cls-46{fill:#d6d6d6;}.cls-47{fill:#4d6c7a;}.cls-48{fill:#828896;}.cls-49{fill:#8f96a6;}.cls-50{isolation:isolate;}.cls-51{fill:#c2a73b;}.cls-52{fill:#e6c545;}.cls-53{fill:#d7b941;}.cls-54{fill:#ccc;}.cls-55{fill:#d0d0d0;}.cls-56{fill:#f2cbac;}.cls-57{fill:#c73d00;}.cls-58{fill:#191919;}.cls-59{fill:#d84200;}.cls-60{fill:#f2c39d;}.cls-61{fill:#2e150e;}.cls-62{fill:#1f0f0b;}.cls-63{fill:#262626;}.cls-64{fill:#364d79;}.cls-65{fill:#a8a8a8;}.cls-66{fill:#ebebeb;}.cls-67{fill:#3a3d3d;}.cls-68{fill:#777;}.cls-69{fill:#36c2a6;}.cls-70{fill:#fed7aa;}.cls-71{fill:#ffd7a8;}.cls-72{fill:#ddebe8;}.cls-73{fill:#5e2e0d;}</style></defs><title>Asset 2</title><g id="Layer_2" data-name="Layer 2"><g id="_ÎÓÈ_2" data-name="—ÎÓÈ_2"><polygon class="cls-1" points="18.93 59.12 18.93 57.73 9.57 52.33 9.57 53.72 18.93 59.12"/><polygon class="cls-2" points="9.57 53.72 9.57 52.33 0.21 57.73 0.21 59.12 9.57 53.72"/><polygon class="cls-3" points="9.57 64.52 0.21 59.12 9.57 53.71 18.93 59.12 9.57 64.52"/><polygon class="cls-1" points="0.21 57.73 0.21 59.12 9.57 64.52 9.57 63.13 0.21 57.73"/><polygon class="cls-2" points="9.57 63.13 9.57 64.52 18.93 59.12 18.93 57.73 9.57 63.13"/><polygon class="cls-4" points="9.57 64.52 9.57 70.58 14.48 67.74 18.93 59.12 9.57 64.52"/><polygon class="cls-5" points="0.21 59.12 4.66 67.74 9.57 70.58 9.57 64.52 0.21 59.12"/><path class="cls-6" d="M12.4,39.13s0,.07-.08.1a.41.41,0,0,1-.34,0,.1.1,0,0,1-.06-.09l-3,20.41c0,.05,0,.09.13.13a1.19,1.19,0,0,0,.7,0c.1,0,.16-.08.16-.13h0Z"/><path class="cls-7" d="M12.22,39.15s-4.43-2.22-8.15,3.19A15.47,15.47,0,0,1,12.22,39.15Z"/><path class="cls-8" d="M12.22,39.15a11.35,11.35,0,0,0-7.13-1S10.67,36.33,12.22,39.15Z"/><path class="cls-9" d="M12.16,39.15A8.17,8.17,0,0,0,9.74,35S14,36.64,12.16,39.15Z"/><path class="cls-7" d="M12.19,39.13a7.73,7.73,0,0,1,6.7-3.52S14.22,37.84,12.19,39.13Z"/><path class="cls-8" d="M12.16,39.13s6.07-2.63,9.4.3A29.46,29.46,0,0,0,12.16,39.13Z"/><path class="cls-9" d="M12.25,39.1s4.5-.31,6.07,2A20.67,20.67,0,0,0,12.25,39.1Z"/><path class="cls-8" d="M12.19,39.15s-3.72.69-4.56,4.11a16.43,16.43,0,0,1,4.56-4.11Z"/><path class="cls-7" d="M12.17,39.1s3.81,1.23,3.52,4.13A15.08,15.08,0,0,0,12.17,39.1Z"/><path class="cls-9" d="M12.24,39a9.94,9.94,0,0,0-1.88,5Z"/><path class="cls-8" d="M12.24,39s1.46,3.07,1.11,5.3A33.61,33.61,0,0,1,12.18,39Z"/><path class="cls-6" d="M12.32,39.23a.41.41,0,0,1-.34,0c-.09,0-.08-.13,0-.19a.41.41,0,0,1,.34,0C12.43,39.09,12.42,39.17,12.32,39.23Z"/><path class="cls-6" d="M6.87,44.16a.1.1,0,0,0,.06.07.25.25,0,0,0,.25,0,.06.06,0,0,0,.05-.06l2.25,15.3s0,.08-.1.1a.77.77,0,0,1-.52,0c-.08,0-.12-.06-.13-.1h0Z"/><path class="cls-7" d="M7,44.17s3.33-1.66,6.11,2.39A11.54,11.54,0,0,0,7,44.17Z"/><path class="cls-8" d="M7,44.17a8.5,8.5,0,0,1,5.35-.75S8.16,42.06,7,44.17Z"/><path class="cls-9" d="M7.05,44.17a6.22,6.22,0,0,1,1.81-3.1S5.65,42.29,7.05,44.17Z"/><path class="cls-7" d="M7,44.16a5.78,5.78,0,0,0-5-2.65S5.5,43.19,7,44.16Z"/><path class="cls-8" d="M7.05,44.16s-4.56-2-7,.22A22.37,22.37,0,0,1,7.05,44.16Z"/><path class="cls-9" d="M7,44.14s-3.37-.24-4.55,1.48A15.39,15.39,0,0,1,7,44.14Z"/><path class="cls-8" d="M7,44.17a4.52,4.52,0,0,1,3.42,3.08A12.46,12.46,0,0,0,7,44.17Z"/><path class="cls-7" d="M7,44.13s-2.85.93-2.64,3.1A11.34,11.34,0,0,1,7,44.13Z"/><path class="cls-9" d="M7,44.09A7.44,7.44,0,0,1,8.4,47.85Z"/><path class="cls-8" d="M7,44.09a8.45,8.45,0,0,0-.83,4,24.8,24.8,0,0,0,.87-4Z"/><path class="cls-6" d="M6.93,44.23a.25.25,0,0,0,.25,0c.07,0,.06-.09,0-.14a.34.34,0,0,0-.26,0C6.85,44.13,6.86,44.19,6.93,44.23Z"/><path class="cls-6" d="M9.67,32.56a.09.09,0,0,1-.06.08.28.28,0,0,1-.28,0,.09.09,0,0,1-.06-.08L8.83,59.47a.35.35,0,0,0,.19.26,1,1,0,0,0,.9,0,.35.35,0,0,0,.19-.26h0Z"/><path class="cls-7" d="M9.52,32.56s-3.89-2.22-7,2.38A11.74,11.74,0,0,1,9.52,32.56Z"/><path class="cls-8" d="M9.52,32.56a10.69,10.69,0,0,0-6.14-1.41S8,30.07,9.52,32.56Z"/><path class="cls-9" d="M9.47,32.56A8.93,8.93,0,0,0,7.11,29S10.7,30.58,9.47,32.56Z"/><path class="cls-7" d="M9.49,32.54s1.07-2.69,4.88-2.41A53.23,53.23,0,0,0,9.49,32.54Z"/><path class="cls-8" d="M9.47,32.55s4.54-1.76,7.78.93A24.75,24.75,0,0,0,9.47,32.55Z"/><path class="cls-9" d="M9.54,32.52s3.69.06,5.42,2.22A21.86,21.86,0,0,0,9.54,32.52Z"/><path class="cls-8" d="M9.49,32.56a4.3,4.3,0,0,0-3.66,3.56,11.75,11.75,0,0,1,3.66-3.56Z"/><path class="cls-7" d="M9.47,32.51s3.38,1.38,3.64,4.13A20.42,20.42,0,0,0,9.47,32.51Z"/><path class="cls-9" d="M9.52,32.47a8.24,8.24,0,0,0-1.1,4.66Z"/><path class="cls-8" d="M9.52,32.47a13.58,13.58,0,0,1,1.68,5.15,42.27,42.27,0,0,1-1.73-5.19Z"/><path class="cls-6" d="M9.61,32.64a.28.28,0,0,1-.28,0,.08.08,0,0,1,0-.16.28.28,0,0,1,.28,0A.08.08,0,0,1,9.61,32.64Z"/><polygon class="cls-10" points="18.05 31.85 26.2 36.57 33.76 32.21 25.61 27.49 18.05 31.85"/><polygon class="cls-11" points="33.14 32.47 33.76 32.11 33.76 24.75 33.14 25.11 33.14 32.47"/><polygon class="cls-12" points="32.52 32.11 33.14 32.47 33.14 25.11 32.52 24.75 32.52 32.11"/><polygon class="cls-11" points="26.21 36.46 26.83 36.1 26.83 28.74 26.21 29.1 26.21 36.46"/><polygon class="cls-12" points="25.58 36.1 26.21 36.46 26.21 29.1 25.58 28.74 25.58 36.1"/><polygon class="cls-11" points="18.67 32.11 19.29 31.75 19.29 24.4 18.67 24.76 18.67 32.11"/><polygon class="cls-12" points="18.05 31.75 18.67 32.11 18.67 24.76 18.05 24.4 18.05 31.75"/><polygon class="cls-13" points="18.05 23.48 26.2 28.19 33.76 23.83 25.61 19.12 18.05 23.48"/><polygon class="cls-14" points="26.21 29.11 33.76 24.75 33.76 23.83 26.21 28.18 26.21 29.11"/><polygon class="cls-15" points="18.05 24.4 26.21 29.11 26.21 28.18 18.05 23.48 18.05 24.4"/><polygon class="cls-13" points="25.6 8.5 18.04 12.87 18.88 13.35 26.44 8.98 25.6 8.5"/><polygon class="cls-15" points="18.05 12.87 18.05 23.48 18.88 23.95 18.88 13.35 18.05 12.87"/><polygon class="cls-14" points="18.88 23.95 26.44 19.59 26.44 8.99 18.88 13.35 18.88 23.95"/><path class="cls-16" d="M30.66,33.48s.12,4.64-1.94,4.13-1.06-4.37-1.06-4.37Z"/><path class="cls-16" d="M34.66,32a3.21,3.21,0,0,0,.78,1.4c.5.38,1.71,1.81.85,2.8s-2-.31-2.6-1a14.3,14.3,0,0,0-2-2c-.33-.22-.05-.8-.05-.8Z"/><path class="cls-17" d="M28,25a5,5,0,0,0,2.63-.7c1.17-.47,2.63.7,2.63.7A.72.72,0,0,1,32.78,26c-.86.23-6.25,1.21-7,.95a1.33,1.33,0,0,1-.85-1C25.3,25.19,26.85,24.89,28,25Z"/><path class="cls-18" d="M32.42,24.14a7.39,7.39,0,0,1,1.27,2.57l1,5.32a2.18,2.18,0,0,1-3,.42,31.49,31.49,0,0,0-.73-4.28c-.33-.76-2.3-3.64-2.3-3.64l2.06-.89Z"/><path class="cls-18" d="M28,24.64a14.8,14.8,0,0,1,1.71,3.05c.33,1.12.94,5.79.94,5.79a2.05,2.05,0,0,1-3-.24s-.88-4.85-1-5.37a19.52,19.52,0,0,0-2.38-2.72Z"/><path class="cls-19" d="M25,7a3.3,3.3,0,0,1-2-.39,4.33,4.33,0,0,0,.42-1.33c.11-.44,2.15.08,2.15.08s0,.21.68.32A1.66,1.66,0,0,1,25,7Z"/><path class="cls-20" d="M26.62,12.84s-2.05-4.45-3.79-6L23,6.57A3.3,3.3,0,0,0,25,7a1.66,1.66,0,0,0,1.28-1.32l.12,0A16.8,16.8,0,0,0,26.62,12.84Z"/><path class="cls-21" d="M19.89,9.41c.26-.82,1-1.31,2.18-2a2.94,2.94,0,0,0,.76-.56c1.74,1.57,3.79,6,3.79,6a16.8,16.8,0,0,1-.24-7.18l.22,0a2,2,0,0,1,1.94,1.83c.05,1,0,11.61.41,12.4s3.95,4.15,4.27,5c0,0-1.46-1.17-2.63-.7A5,5,0,0,1,28,25c-1.11-.06-2.66.24-3,1,0,0-.44-.06-1.38-1s-2.3-2-2.27-3.57a31.56,31.56,0,0,0-.21-5.73C20.74,14,19.51,10.58,19.89,9.41Z"/><path class="cls-22" d="M22.83,6.82c1.74,1.57,3.79,6,3.79,6L24,10.26l.1-1-2-1.86A2.06,2.06,0,0,0,22.83,6.82Z"/><path class="cls-22" d="M26.38,5.66l.22,0a2,2,0,0,1,.43.08l-.41,2.65.53,1-.53,3.44A16.8,16.8,0,0,1,26.38,5.66Z"/><path class="cls-23" d="M26.62,12.84s0,.79,0,2c0,.6,0,1.29,0,2V18c0,.39,0,.79,0,1.18s0,.79-.06,1.18a5.46,5.46,0,0,0,0,.58,3.7,3.7,0,0,0,.07.57,4.69,4.69,0,0,0,.33,1,7.51,7.51,0,0,0,.45.85,9.18,9.18,0,0,0,.83,1.17,4.82,4.82,0,0,0,.35.41s-.13-.15-.34-.42a11.39,11.39,0,0,1-.8-1.19,6.73,6.73,0,0,1-.43-.85,5.19,5.19,0,0,1-.32-1,4.87,4.87,0,0,1-.06-.55,5.46,5.46,0,0,1,0-.57c0-.39,0-.79.07-1.19s0-.79,0-1.18,0-.77,0-1.14,0-.73,0-1.07,0-.66,0-1c0-.59-.05-1.09-.06-1.43S26.62,12.84,26.62,12.84Z"/><path class="cls-24" d="M26.93,2.69s0,4.53-1.53,4.11a3.87,3.87,0,0,1-2.16-1.39L22.31,2.7,24.74.59Z"/><path class="cls-25" d="M23.24,5.41s-.54-.79-1.09-1.71A2.73,2.73,0,0,1,22.32,1,3.26,3.26,0,0,1,24.87,0a3.07,3.07,0,0,1,2.24,1.51c.45.73.33,1.32.76,1.37a2.25,2.25,0,0,1-1.95,0c-1.15-.51-1.91-.5-2.28-.08S24.13,5.14,23.24,5.41Z"/><path class="cls-24" d="M23.81,3.9s-.26-.49-.47-.2.25,1.19.34,1.27S23.81,3.9,23.81,3.9Z"/><polygon class="cls-26" points="19.67 42.21 20.78 41.57 20.78 28.68 19.67 29.32 19.67 42.21"/><polygon class="cls-27" points="18.55 41.57 19.67 42.21 19.67 29.32 18.55 28.68 18.55 41.57"/><polygon class="cls-26" points="51.11 38.19 52.22 37.54 52.22 24.66 51.11 25.3 51.11 38.19"/><polygon class="cls-27" points="50 37.54 51.11 38.19 51.11 25.3 50 24.66 50 37.54"/><polygon class="cls-26" points="31.94 49.29 33.05 48.65 33.05 35.76 31.94 36.4 31.94 49.29"/><polygon class="cls-27" points="30.83 48.65 31.94 49.29 31.94 36.4 30.83 35.76 30.83 48.65"/><polygon class="cls-28" points="31.94 34.38 52.22 22.66 38.84 14.94 18.55 26.65 31.94 34.38"/><polygon class="cls-29" points="31.94 36.41 52.22 24.69 52.22 22.65 31.94 34.37 31.94 36.41"/><polygon class="cls-30" points="18.55 28.68 31.94 36.41 31.94 34.37 18.55 26.64 18.55 28.68"/><path class="cls-24" d="M36.08,16.06a25.56,25.56,0,0,1,2.66,1.77c0,.16-1-.35-1-.35s1.48,1,1.4,1.15-1.41-.71-1.41-.71,1.34,1,1.23,1.22-1.42-.89-1.42-.89,1,.94.89,1.1-1.51-1.22-1.51-1.22.54,1.15.37,1.2-.67-.72-.81-1.15a6.84,6.84,0,0,0-1-1.4Z"/><polygon class="cls-31" points="27.22 22.83 33.97 18.94 36.72 20.55 29.98 24.44 27.22 22.83"/><path class="cls-32" d="M30.19,21.71a.14.14,0,0,0,.15,0l2.26-1.3s0-.07,0-.1l-.27-.15a.14.14,0,0,0-.15,0l-2.27,1.3s0,.07,0,.09Z"/><path class="cls-32" d="M32.71,20.26a.2.2,0,0,0,.15,0l.31-.18a0,0,0,0,0,0-.09l-.28-.16a.19.19,0,0,0-.15,0l-.31.18s0,.06,0,.09Z"/><path class="cls-32" d="M33.27,19.93a.22.22,0,0,0,.16,0l.3-.18c.05,0,.05-.06,0-.09l-.27-.15a.15.15,0,0,0-.16,0l-.3.17s0,.07,0,.09Z"/><path class="cls-32" d="M33.38,20.46a.15.15,0,0,0,.16,0l.3-.17s0-.07,0-.09L33.57,20a.22.22,0,0,0-.16,0l-.3.18s0,.06,0,.09Z"/><path class="cls-32" d="M32.82,20.79a.19.19,0,0,0,.15,0l.31-.18s0-.06,0-.09L33,20.37a.14.14,0,0,0-.15,0l-.31.17s0,.07,0,.09Z"/><path class="cls-32" d="M32.25,21.11a.15.15,0,0,0,.16,0l.3-.17s0-.07,0-.09l-.27-.16a.22.22,0,0,0-.16,0l-.3.18s0,.06,0,.09Z"/><path class="cls-32" d="M31.69,21.44a.22.22,0,0,0,.16,0l.3-.18s0-.06,0-.09L31.88,21a.15.15,0,0,0-.16,0l-.3.17c-.05,0-.05.07,0,.09Z"/><path class="cls-32" d="M31.1,21.78a.14.14,0,0,0,.15,0l.31-.17s0-.07,0-.09l-.28-.16a.14.14,0,0,0-.15,0l-.31.17s0,.07,0,.09Z"/><path class="cls-32" d="M30.53,22.11a.22.22,0,0,0,.16,0l.3-.18s0-.06,0-.09l-.27-.16a.22.22,0,0,0-.16,0l-.3.18c-.05,0-.05.07,0,.09Z"/><path class="cls-32" d="M30,22.45a.19.19,0,0,0,.15,0l.31-.18s0-.07,0-.09L30.13,22A.2.2,0,0,0,30,22l-.31.18s0,.06,0,.09Z"/><path class="cls-32" d="M29.38,22.77a.15.15,0,0,0,.16,0l.31-.18s0-.06,0-.09l-.28-.15a.14.14,0,0,0-.15,0l-.31.17s0,.07,0,.09Z"/><path class="cls-32" d="M33.84,19.6a.14.14,0,0,0,.15,0l.31-.17s0-.07,0-.09L34,19.18a.14.14,0,0,0-.15,0l-.31.18s0,.06,0,.09Z"/><path class="cls-32" d="M33.75,20.86a.22.22,0,0,0,.16,0l.3-.18s0-.06,0-.09l-.27-.15a.14.14,0,0,0-.15,0l-.31.17s0,.07,0,.09Z"/><path class="cls-32" d="M33.19,21.19a.22.22,0,0,0,.16,0l.3-.18s0-.07,0-.09l-.27-.16a.22.22,0,0,0-.16,0l-.3.18c-.05,0-.05.06,0,.09Z"/><path class="cls-32" d="M32.63,21.51a.19.19,0,0,0,.15,0l.31-.18s0-.06,0-.09l-.27-.15a.15.15,0,0,0-.16,0l-.31.17s0,.07,0,.09Z"/><path class="cls-32" d="M32.06,21.84a.22.22,0,0,0,.16,0l.3-.18s0-.07,0-.09l-.27-.16a.2.2,0,0,0-.15,0l-.31.18s0,.06,0,.09Z"/><path class="cls-32" d="M31.5,22.16a.15.15,0,0,0,.16,0L32,22s0-.06,0-.09l-.27-.15a.15.15,0,0,0-.16,0l-.3.17c-.05,0-.05.07,0,.09Z"/><path class="cls-32" d="M30.94,22.49a.19.19,0,0,0,.15,0l.31-.18s0-.07,0-.09l-.27-.16a.22.22,0,0,0-.16,0l-.3.18c-.05,0-.05.06,0,.09Z"/><path class="cls-32" d="M30.38,22.81a.14.14,0,0,0,.15,0l.31-.17a.06.06,0,0,0,0-.1l-.28-.15a.14.14,0,0,0-.15,0l-.31.17s0,.07,0,.09Z"/><path class="cls-32" d="M29.81,23.14a.22.22,0,0,0,.16,0l.3-.18c.05,0,.05-.07,0-.09L30,22.71a.22.22,0,0,0-.16,0l-.3.18s0,.06,0,.09Z"/><path class="cls-32" d="M29,23.63a.22.22,0,0,0,.16,0l.59-.34s0-.07,0-.09L29.44,23a.15.15,0,0,0-.16,0l-.59.34s0,.06,0,.09Z"/><path class="cls-32" d="M34.32,20.53a.15.15,0,0,0,.16,0l.3-.17s0-.07,0-.09l-.27-.16a.22.22,0,0,0-.16,0l-.3.18s0,.06,0,.09Z"/><path class="cls-32" d="M34.88,20.21a.22.22,0,0,0,.16,0l.3-.18s0-.06,0-.09l-.27-.16a.22.22,0,0,0-.16,0l-.3.18a0,0,0,0,0,0,.09Z"/><path class="cls-32" d="M34.8,21.46a.14.14,0,0,0,.15,0l.31-.17s0-.07,0-.09L35,21a.14.14,0,0,0-.15,0l-.31.17s0,.07,0,.09Z"/><path class="cls-32" d="M34.23,21.79a.22.22,0,0,0,.16,0l.3-.18c.05,0,.05-.06,0-.09l-.27-.16a.22.22,0,0,0-.16,0l-.3.18s0,.06,0,.09Z"/><path class="cls-32" d="M33.67,22.11a.15.15,0,0,0,.16,0l.3-.17s0-.07,0-.09l-.27-.16a.15.15,0,0,0-.16,0l-.3.17s0,.07,0,.09Z"/><path class="cls-32" d="M33.11,22.44a.2.2,0,0,0,.15,0l.31-.18s0-.06,0-.09L33.3,22a.22.22,0,0,0-.16,0l-.31.18s0,.06,0,.09Z"/><path class="cls-32" d="M32.54,22.76a.15.15,0,0,0,.16,0l.31-.17s0-.07,0-.09l-.28-.16a.14.14,0,0,0-.15,0l-.31.17s0,.07,0,.09Z"/><path class="cls-32" d="M32,23.09a.22.22,0,0,0,.16,0l.3-.18c.05,0,.05-.06,0-.09l-.27-.16a.22.22,0,0,0-.16,0l-.3.18s0,.06,0,.09Z"/><path class="cls-32" d="M31.42,23.41a.14.14,0,0,0,.15,0l.31-.17s0-.07,0-.09L31.61,23a.15.15,0,0,0-.16,0l-.3.17s0,.07,0,.1Z"/><path class="cls-32" d="M30.86,23.74a.2.2,0,0,0,.15,0l.31-.18s0-.06,0-.09L31,23.31a.19.19,0,0,0-.15,0l-.31.18a0,0,0,0,0,0,.09Z"/><path class="cls-32" d="M30,24.23a.2.2,0,0,0,.15,0l.59-.34c.05,0,.05-.07,0-.09l-.27-.16a.15.15,0,0,0-.16,0l-.59.34s0,.07,0,.09Z"/><path class="cls-32" d="M35.36,21.14a.22.22,0,0,0,.16,0l.3-.18s0-.07,0-.09l-.27-.16a.22.22,0,0,0-.16,0l-.3.18s0,.06,0,.09Z"/><path class="cls-32" d="M35.93,20.81a.2.2,0,0,0,.15,0l.31-.18s0-.06,0-.09l-.28-.15a.14.14,0,0,0-.15,0l-.31.17s0,.07,0,.09Z"/><path class="cls-32" d="M34,20.09a.15.15,0,0,0,.16,0l.63-.36s0-.07,0-.09l-.27-.16a.15.15,0,0,0-.16,0l-.63.37s0,.06,0,.09Z"/><path class="cls-32" d="M28.43,23.32a.15.15,0,0,0,.16,0l.64-.37s0-.06,0-.09L29,22.7a.19.19,0,0,0-.15,0l-.64.37s0,.07,0,.09Z"/><path class="cls-32" d="M34,21.31a.15.15,0,0,0,.16,0l.3-.17s0-.07,0-.09l-.27-.16a.15.15,0,0,0-.16,0l-.3.18s0,.06,0,.09Z"/><path class="cls-32" d="M34.58,21a.15.15,0,0,0,.16,0l.3-.17c.05,0,.05-.07,0-.09l-.27-.16a.22.22,0,0,0-.16,0l-.3.18s0,.06,0,.09Z"/><path class="cls-32" d="M35.13,20.68a.22.22,0,0,0,.16,0l.58-.34c.05,0,.05-.07,0-.09l-.27-.16a.19.19,0,0,0-.15,0l-.59.34s0,.07,0,.09Z"/><path class="cls-32" d="M33.47,21.64a.2.2,0,0,0,.15,0l.31-.18s0-.06,0-.09l-.28-.16a.2.2,0,0,0-.15,0l-.31.18s0,.07,0,.09Z"/><path class="cls-32" d="M32.9,22a.15.15,0,0,0,.16,0l.3-.17s0-.07,0-.09l-.27-.16a.15.15,0,0,0-.16,0l-.3.18s0,.06,0,.09Z"/><path class="cls-32" d="M32.34,22.29a.22.22,0,0,0,.16,0l.3-.18s0-.06,0-.09l-.27-.15a.15.15,0,0,0-.16,0l-.3.17s0,.07,0,.09Z"/><path class="cls-32" d="M31.75,22.63a.14.14,0,0,0,.15,0l.31-.17a.06.06,0,0,0,0-.1l-.28-.15a.14.14,0,0,0-.15,0l-.31.17s0,.07,0,.09Z"/><path class="cls-32" d="M31.18,23a.22.22,0,0,0,.16,0l.3-.18s0-.06,0-.09l-.27-.16a.22.22,0,0,0-.16,0l-.3.18c-.05,0-.05.07,0,.09Z"/><path class="cls-32" d="M30.6,23.29a.14.14,0,0,0,.15,0l.31-.17s0-.07,0-.09l-.28-.16a.19.19,0,0,0-.15,0l-.31.18s0,.06,0,.09Z"/><path class="cls-32" d="M30,23.62a.22.22,0,0,0,.16,0l.3-.18c.05,0,.05-.06,0-.09l-.27-.15a.14.14,0,0,0-.15,0l-.31.17s0,.07,0,.09Z"/><path class="cls-32" d="M29.49,23.93a.15.15,0,0,0,.16,0l.3-.17c.05,0,.05-.07,0-.09l-.27-.16a.15.15,0,0,0-.16,0l-.3.17s0,.07,0,.09Z"/><path class="cls-32" d="M28.48,22.7a.22.22,0,0,0,.16,0l.3-.18a0,0,0,0,0,0-.09l-.27-.16a.22.22,0,0,0-.16,0l-.3.18c-.05,0-.05.06,0,.09Z"/><path class="cls-32" d="M27.92,23a.14.14,0,0,0,.15,0l.31-.17s0-.07,0-.09l-.28-.16a.14.14,0,0,0-.15,0l-.31.17s0,.07,0,.09Z"/><path class="cls-32" d="M29.05,22.37a.2.2,0,0,0,.15,0l.31-.18s0-.06,0-.09L29.23,22a.14.14,0,0,0-.15,0l-.31.17s0,.07,0,.09Z"/><path class="cls-32" d="M29.61,22a.15.15,0,0,0,.16,0l.3-.17s0-.07,0-.09l-.27-.16a.22.22,0,0,0-.16,0l-.3.18c-.05,0-.05.06,0,.09Z"/><polygon class="cls-33" points="36.72 20.55 36.72 20.66 29.98 24.55 29.98 24.44 36.72 20.55"/><polygon class="cls-34" points="29.98 24.44 29.98 24.55 27.22 22.95 27.22 22.83 29.98 24.44"/><path class="cls-23" d="M32.77,13.55c-1.47-.93-3.19-5.73-4-6.91a2.69,2.69,0,0,0-2.4-1l.22,0a2,2,0,0,1,1.94,1.83c0,.38,0,2.16,0,4.26.75.94,2.05,2.54,2.43,2.93.56.55,5.31,3.36,5.31,3.36a1.21,1.21,0,0,1,1.21-1.23S34.23,14.49,32.77,13.55Z"/><path class="cls-24" d="M28,20.73a25.88,25.88,0,0,0,2,2.48c.16,0-.44-1-.44-1s1,1.21,1.22,1.12S30,22.19,30,22.19s1.08,1.14,1.26,1S30.28,22,30.28,22s1.09,1,1.23.83-1.4-1.4-1.4-1.4,1.06.67,1.09.49-.71-.7-1.11-.95c-.86-.54-.88-.49-1.46-.87Z"/><path class="cls-23" d="M20.6,8.77s.76-.2,1.29,1.09,2,5,2.3,5.37,5.73,5.54,5.73,5.54a1.31,1.31,0,0,0-1.33.93s-5.87-4.44-6.14-5a40.57,40.57,0,0,1-2.52-5.44C19.72,10.16,19.68,9.09,20.6,8.77Z"/><polygon class="cls-35" points="45.02 24.75 38.98 28.24 36.3 26.69 42.34 23.2 45.02 24.75"/><polygon class="cls-36" points="36.3 26.69 36.3 27.08 38.98 28.63 38.98 28.24 36.3 26.69"/><polygon class="cls-37" points="38.98 28.24 38.98 28.63 45.02 25.14 45.02 24.75 38.98 28.24"/><polygon class="cls-38" points="45.66 18.9 34.38 25.41 34.38 17.69 45.66 11.18 45.66 18.9"/><polygon class="cls-36" points="34.38 25.41 34.05 25.23 34.05 17.51 34.38 17.69 34.38 25.41"/><polygon class="cls-35" points="34.05 17.51 34.38 17.69 45.66 11.18 45.34 11 34.05 17.51"/><polygon class="cls-37" points="41.66 25.28 40.03 26.22 40.03 20.12 41.66 19.18 41.66 25.28"/><polygon class="cls-36" points="39.67 26.01 40.03 26.22 40.03 20.12 39.67 19.91 39.67 26.01"/><polygon class="cls-35" points="39.67 19.91 40.03 20.12 41.66 19.18 41.29 18.96 39.67 19.91"/><path class="cls-39" d="M76.2,85.88a9.72,9.72,0,0,1-8.76,0c-2.42-1.4-2.42-3.67,0-5.06a9.66,9.66,0,0,1,8.76,0C78.62,82.21,78.62,84.48,76.2,85.88Z"/><path class="cls-39" d="M65.62,83v.39a2.33,2.33,0,0,1,0-.38Z"/><path class="cls-40" d="M76.2,85.88a9.72,9.72,0,0,1-8.76,0,3.1,3.1,0,0,1-1.82-2.53v2.11A3.08,3.08,0,0,0,67.44,88a9.66,9.66,0,0,0,8.76,0A3.08,3.08,0,0,0,78,85.46V83.35A3.1,3.1,0,0,1,76.2,85.88Z"/><path class="cls-41" d="M74.88,39.12a6.77,6.77,0,0,1-6.12,0c-1.7-1-1.7-2.56,0-3.53a6.74,6.74,0,0,1,6.12,0C76.57,36.55,76.57,38.14,74.88,39.12Z"/><path class="cls-42" d="M67.49,37.08v.27a2.45,2.45,0,0,1,0-.27Z"/><path class="cls-42" d="M74.88,39.12a6.77,6.77,0,0,1-6.12,0,2.12,2.12,0,0,1-1.27-1.76V82.89a2.13,2.13,0,0,0,1.27,1.77,6.74,6.74,0,0,0,6.12,0,2.14,2.14,0,0,0,1.27-1.77V37.35A2.15,2.15,0,0,1,74.88,39.12Z"/><path class="cls-41" d="M79.68,40.32,75,43a2.69,2.69,0,0,1-2.42.1L65.9,39.26c-.62-.35-.54-1,.17-1.39l4.64-2.68a2.66,2.66,0,0,1,2.42-.1l6.72,3.83C80.47,39.28,80.39,39.91,79.68,40.32Z"/><path class="cls-43" d="M65.9,39.26a.71.71,0,0,1-.42-.64h0v1.46a.71.71,0,0,0,.42.63l6.65,3.8V43.06Z"/><path class="cls-44" d="M79.68,40.32,75,43a2,2,0,0,1-.5.21v1.45a2,2,0,0,0,.5-.21l4.64-2.68a1,1,0,0,0,.59-.82V39.53A1,1,0,0,1,79.68,40.32Z"/><path class="cls-45" d="M72.62,43.1l-.07,0v1.45l.07,0a2.61,2.61,0,0,0,1.92.11V43.21A2.61,2.61,0,0,1,72.62,43.1Z"/><path class="cls-46" d="M70.32,23.73l-4-2.33c-.83-.48-.72-1.32.23-1.87l3.58-2.06a3.62,3.62,0,0,1,3.23-.14l4,2.34c.82.47.72,1.31-.23,1.86L73.55,23.6A3.59,3.59,0,0,1,70.32,23.73Z"/><path class="cls-45" d="M70.57,23.85V41.61a3.6,3.6,0,0,0,2.12.08V23.93A3.6,3.6,0,0,1,70.57,23.85Z"/><path class="cls-43" d="M70.32,23.73l-4-2.33a1,1,0,0,1-.56-.86h0V38.29h0a.93.93,0,0,0,.55.87l4,2.33.25.12V23.85Z"/><path class="cls-44" d="M77.13,21.53,73.55,23.6a3.07,3.07,0,0,1-.86.33V41.69a3.41,3.41,0,0,0,.86-.33l3.58-2.07a1.33,1.33,0,0,0,.79-1.06h0V20.47A1.33,1.33,0,0,1,77.13,21.53Z"/><path class="cls-47" d="M73.26,40.74l4.55-2.63a.26.26,0,0,0,.11-.2V27.65c0-.08,0-.12-.11-.08l-4.55,2.62a.27.27,0,0,0-.11.21V40.66C73.15,40.73,73.2,40.77,73.26,40.74Z"/><path class="cls-48" d="M82.1,42.19l-.5-1H80.53L80,42.2h0a.11.11,0,0,0,0,.14l.81.47a.44.44,0,0,0,.37,0l.76-.44C82.1,42.31,82.13,42.24,82.1,42.19Z"/><path class="cls-49" d="M81,41.46l-.42-.25s0-.07,0-.11l.39-.22a.19.19,0,0,1,.19,0l.42.24c.05,0,.05.08,0,.11l-.39.23A.25.25,0,0,1,81,41.46Z"/><g class="cls-50"><path class="cls-51" d="M81.48,40.17l.48-.28c-.2.12-.43.42-.44,1.24l-.48.28C81,40.6,81.28,40.29,81.48,40.17Z"/><path class="cls-52" d="M81,40l.49-.28c.16-.1.41-.09.78.13l-.48.28C81.37,39.89,81.12,39.88,81,40Z"/><path class="cls-53" d="M81.74,40.11S81,40,81,41.41l-.4-.23C80.63,41.09,80.45,39.37,81.74,40.11Z"/></g><path class="cls-48" d="M75.23,43.76a.17.17,0,0,1-.17-.13.19.19,0,0,1,.13-.23L80.38,42a.18.18,0,0,1,.22.14.17.17,0,0,1-.13.22l-5.19,1.38Z"/><path class="cls-41" d="M95,28.8l-3.53,2a2.06,2.06,0,0,1-1.85.08l-5-2.88c-.47-.27-.41-.75.14-1.06l3.53-2.05a2.09,2.09,0,0,1,1.85-.07l5,2.88C95.64,28,95.59,28.49,95,28.8Z"/><path class="cls-54" d="M84.64,28a.54.54,0,0,1-.31-.49h0v11a.53.53,0,0,0,.31.48l5,2.85v-11Z"/><path class="cls-42" d="M95,28.8l-3.53,2a1.8,1.8,0,0,1-.38.16V42a2.54,2.54,0,0,0,.38-.16l3.53-2a.74.74,0,0,0,.45-.63V28.19A.75.75,0,0,1,95,28.8Z"/><path class="cls-55" d="M89.66,30.92l0,0v11l0,0a2,2,0,0,0,1.47.09V31A2,2,0,0,1,89.66,30.92Z"/><path class="cls-47" d="M89.24,41.23,84.69,38.6a.26.26,0,0,1-.1-.2V36.18c0-.08,0-.11.1-.08l4.55,2.63a.24.24,0,0,1,.11.2v2.22C89.35,41.23,89.3,41.26,89.24,41.23Z"/><path class="cls-56" d="M87.41,65.6a3.34,3.34,0,0,1-.15.52C87,66.67,86.8,67.94,87,68s.48-1.39.48-1.39a9.86,9.86,0,0,0-.34,2.22c.24,0,.32-.41.4-.83a6,6,0,0,1,.24-.86s-.34,1.67-.12,1.67.22-.3.3-.78.2-1,.2-1A8,8,0,0,0,88,68.55c.11,0,.28-.44.34-.94a2.2,2.2,0,0,1,.11-.58s-.11.82-.11,1,.23,0,.26-.25a6.15,6.15,0,0,0,.16-1.59,2.26,2.26,0,0,1,0-.27Z"/><path class="cls-57" d="M89.3,49c-.31-2-.8-3.72-1.58-4,0,0-1.74-.59-1.8,1.51a13.64,13.64,0,0,0,.56,3A33.08,33.08,0,0,1,87.69,55c0,2-.19,10.55-.28,10.64l1.36.31S90.1,57.09,89.9,55C89.8,53.88,89.66,51.26,89.3,49Z"/><path class="cls-56" d="M82.61,87.5s.1-.17.88-.61c.49-.27.86-4,.86-4l2-.22-.15,1.2-1.91,3.37S82.73,87.87,82.61,87.5Z"/><path class="cls-58" d="M84.35,82.88s-.54-7.18-.36-9.4l.71-9.24L89,65.41s-2.52,7.13-2.62,8.34-.08,8.91-.08,8.91C85.64,83.35,84.35,82.88,84.35,82.88Z"/><path class="cls-56" d="M77.65,88.49s.1-.17.88-.6c.5-.28.86-4,.86-4l2-.22-.15,1.2-1.91,3.37S77.77,88.87,77.65,88.49Z"/><path class="cls-58" d="M79.39,83.88s-.27-8.6-.2-9.69,1.21-8.84,1.21-8.84L86,63.91s-3.93,9.42-4,10.47-.59,9.28-.59,9.28A2.35,2.35,0,0,1,79.39,83.88Z"/><path class="cls-59" d="M82,45.79s1.8,1.18,3.29.59,1.39-1.63,1.39-1.63,2.12.28,2.19,3.81S86.34,53.8,88.22,60c.59,1.92,1,4.93.73,5.6-.48,1.18-8.8,1.9-8.63.31.22-2,.48-4,.64-4.94.48-2.69.44-6.36-.89-8C78.5,51.12,79.05,47.29,82,45.79Z"/><path class="cls-60" d="M85.3,46.38C83.81,47,82,45.79,82,45.79c1-.58,1.33-2.69,1.33-2.69l2.61.5a1.94,1.94,0,0,0,.74,1.15S86.8,45.79,85.3,46.38Z"/><path class="cls-56" d="M80.82,37.09c.87-2.21,3.92-1.54,4.67-.49a8.56,8.56,0,0,1,.27,7.64l-2.46-.47s0,.07,0,.19a3.7,3.7,0,0,1-1.53-.86A5.7,5.7,0,0,1,80.82,37.09Z"/><path class="cls-56" d="M78.65,67.42a3,3,0,0,1-.23.5c-.31.52-.69,1.76-.54,1.79s.66-1.32.66-1.32a10.93,10.93,0,0,0-.64,2.16c.25.06.38-.37.51-.78a6.86,6.86,0,0,1,.36-.83s-.56,1.62-.34,1.65.26-.27.39-.74.33-.95.33-.95a7.14,7.14,0,0,0-.28,1.52c.1,0,.33-.4.45-.88a2.62,2.62,0,0,1,.19-.57s-.22.8-.24,1,.23,0,.29-.22a6.31,6.31,0,0,0,.37-1.56,2.46,2.46,0,0,1,0-.26Z"/><path class="cls-57" d="M82.71,51.14c0-2-.3-3.79-1-4.16,0,0-1.66-.79-2,1.28a13.55,13.55,0,0,0,.15,3.08,32.91,32.91,0,0,1,.48,5.56c-.21,2-1.57,10.45-1.67,10.52l1.3.48s2.49-8.6,2.57-10.73C82.56,56.07,82.77,53.46,82.71,51.14Z"/><path class="cls-61" d="M80.44,36.9c.13-.74,2.58-2,4.57-1.5,1.46.36,3.36,1.89,3,5.77-.23,2.16-1.23,3.57-1,4.9.31,1.76,1,4,1.4,6.21.85,4.31-2.41,4.13-2.41,4.13s-3,.8-3.11-2.18,1.39-4.57,1.59-8.1c.06-1-3-3-3-5.26a6.66,6.66,0,0,0-.59-2.75C80.63,37.77,80.3,37.64,80.44,36.9Z"/><path class="cls-62" d="M84.35,54.3c-.36-3.15,1-4.89.88-8.64,0-1.11-3.22-3.15-3.38-5.55A6.89,6.89,0,0,0,81,37.25a3.44,3.44,0,0,1-.48-.54.56.56,0,0,0-.07.19c-.14.74.19.87.44,1.22a6.66,6.66,0,0,1,.59,2.75c0,2.27,3,4.22,3,5.26-.2,3.53-1.69,5.11-1.59,8.1.09,2.63,1.94,2.31,2.9,2.2C84.19,56.45,84.56,56.1,84.35,54.3Z"/><path d="M83.42,88.58s1.56-.12,2-.65.54-3.07.54-3.07l-.59.23Z"/><path class="cls-63" d="M86.27,83.19a1,1,0,0,0-1.49,0c-.69.81-.52,3.5-1.38,3.82S82,88,82.6,88.3a1.26,1.26,0,0,0,1.76-.18c.75-.64,1.16-3.1,1.45-3.1V89a.3.3,0,0,0,.46,0s-.06-3.37,0-3.63A2.29,2.29,0,0,0,86.27,83.19Z"/><path d="M78.46,89.57s1.56-.11,2-.64.54-3.07.54-3.07l-.58.23Z"/><path class="cls-63" d="M81.31,84.19a1,1,0,0,0-1.49,0c-.68.81-.51,3.5-1.37,3.82s-1.37,1-.8,1.29a1.28,1.28,0,0,0,1.76-.18c.74-.65,1.16-3.1,1.44-3.1V90a.32.32,0,0,0,.46,0s-.06-3.37,0-3.64A2.27,2.27,0,0,0,81.31,84.19Z"/><path d="M87.25,46c.07.29-.55.65-1.37.81s-1.54.05-1.61-.24.56-.64,1.38-.8S87.19,45.66,87.25,46Z"/><path class="cls-41" d="M70.26,42.61l-.7.4a1.47,1.47,0,0,1-1.32.06L64.64,41c-.33-.2-.29-.54.1-.77l.7-.39a1.47,1.47,0,0,1,1.32-.06l3.6,2.06C70.69,42.05,70.65,42.39,70.26,42.61Z"/><path class="cls-54" d="M64.64,41a.38.38,0,0,1-.22-.35h0v4.8a.39.39,0,0,0,.22.35l3.56,2v-4.8Z"/><path class="cls-42" d="M70.26,42.61l-.7.4-.27.12v4.8l.27-.12.7-.4a.51.51,0,0,0,.32-.44V42.18A.52.52,0,0,1,70.26,42.61Z"/><path class="cls-55" d="M68.24,43.07l0,0v4.8l0,0a1.43,1.43,0,0,0,1.05.06v-4.8A1.43,1.43,0,0,1,68.24,43.07Z"/><path class="cls-64" d="M67.54,47.17l-2.86-1.64a.2.2,0,0,1-.08-.15V41.5c0-.06,0-.09.08-.06l2.86,1.65a.18.18,0,0,1,.08.14v3.89C67.62,47.17,67.58,47.2,67.54,47.17Z"/><path class="cls-65" d="M68,43.72l-.23-.13a.2.2,0,0,1-.08-.15v-.06c0-.05,0-.08.08-.05l.23.13a.19.19,0,0,1,.08.15v0C68.09,43.72,68.05,43.74,68,43.72Z"/><path class="cls-65" d="M68,44.22l-.23-.13a.2.2,0,0,1-.08-.15v0c0-.06,0-.09.08-.06L68,44a.2.2,0,0,1,.08.15v0C68.09,44.22,68.05,44.25,68,44.22Z"/><path class="cls-65" d="M68,44.72l-.23-.13a.19.19,0,0,1-.08-.15v0c0-.06,0-.09.08-.06l.23.13a.2.2,0,0,1,.08.15v0C68.09,44.72,68.05,44.75,68,44.72Z"/><path class="cls-65" d="M68,45.22l-.23-.13a.19.19,0,0,1-.08-.15v0c0-.06,0-.08.08-.06L68,45a.2.2,0,0,1,.08.15v.06S68.05,45.25,68,45.22Z"/><path class="cls-65" d="M68,45.73l-.23-.14a.18.18,0,0,1-.08-.14v-.06c0-.06,0-.08.08-.06l.23.13a.2.2,0,0,1,.08.15v.06S68.05,45.75,68,45.73Z"/><path class="cls-65" d="M68,46.23l-.23-.14A.18.18,0,0,1,67.7,46v-.06c0-.06,0-.08.08-.06L68,46a.18.18,0,0,1,.08.14v.06S68.05,46.25,68,46.23Z"/><path class="cls-65" d="M68,46.73l-.23-.13a.2.2,0,0,1-.08-.15v-.06s0-.08.08-.06l.23.14a.18.18,0,0,1,.08.14v.06C68.09,46.73,68.05,46.75,68,46.73Z"/><path class="cls-65" d="M68,47.23l-.23-.13A.2.2,0,0,1,67.7,47v-.06s0-.08.08,0L68,47a.18.18,0,0,1,.08.14v.06C68.09,47.23,68.05,47.25,68,47.23Z"/><ellipse class="cls-41" cx="78.5" cy="33.16" rx="2.24" ry="1.3"/><path class="cls-42" d="M76.26,33v.14a.57.57,0,0,1,0-.13Z"/><path class="cls-42" d="M80.09,34.08a3.5,3.5,0,0,1-3.18,0,1.1,1.1,0,0,1-.65-.92v11a1.09,1.09,0,0,0,.65.91,3.5,3.5,0,0,0,3.18,0,1.09,1.09,0,0,0,.65-.91v-11A1.1,1.1,0,0,1,80.09,34.08Z"/><path class="cls-66" d="M81.38,35.45l-7.8-4.51C72,30,72.19,28.4,74,27.35l6.91-4a6.92,6.92,0,0,1,6.22-.26L95,27.6c1.59.92,1.39,2.54-.45,3.6l-6.91,4A7,7,0,0,1,81.38,35.45Z"/><polygon class="cls-17" points="96.04 29.1 96.04 29.1 96.04 29.1 96.04 29.1"/><path class="cls-17" d="M94.52,31.2l-6.91,4a7,7,0,0,1-6.23.26l-7.8-4.51a1.8,1.8,0,0,1-1.07-1.65h0v1.42h0a1.81,1.81,0,0,0,1.07,1.67l7.8,4.5a7,7,0,0,0,6.23-.25l6.91-4A2.56,2.56,0,0,0,96,30.58h0V29.14A2.56,2.56,0,0,1,94.52,31.2Z"/><polygon class="cls-17" points="69.63 40.75 69.63 40.75 69.63 40.75 69.63 40.75"/><path class="cls-41" d="M89.32,26.61l-4.64,2.68a2.73,2.73,0,0,1-2.42.1L65.9,20c-.62-.36-.54-1,.17-1.4l4.64-2.68a2.69,2.69,0,0,1,2.42-.1l16.36,9.4C90.11,25.57,90,26.2,89.32,26.61Z"/><path class="cls-43" d="M65.9,20a.72.72,0,0,1-.42-.65h0V20.8a.7.7,0,0,0,.42.63L82.19,30.8V29.35Z"/><path class="cls-44" d="M89.32,26.61l-4.64,2.68a3.26,3.26,0,0,1-.5.21v1.44a2,2,0,0,0,.5-.21l4.64-2.68a1,1,0,0,0,.59-.82V25.81A1,1,0,0,1,89.32,26.61Z"/><path class="cls-45" d="M82.26,29.39l-.07,0V30.8l.07,0a2.55,2.55,0,0,0,1.92.11V29.5A2.6,2.6,0,0,1,82.26,29.39Z"/><path class="cls-46" d="M72.68,17.6a4,4,0,0,1-3.59,0,1.1,1.1,0,0,1,0-2.08,4,4,0,0,1,3.59,0A1.1,1.1,0,0,1,72.68,17.6Z"/><path class="cls-42" d="M68.35,16.4v.16a.86.86,0,0,1,0-.16Z"/><path class="cls-45" d="M72.68,17.6a4,4,0,0,1-3.59,0,1.26,1.26,0,0,1-.74-1v3.2a1.25,1.25,0,0,0,.74,1,4,4,0,0,0,3.59,0,1.26,1.26,0,0,0,.75-1v-3.2A1.28,1.28,0,0,1,72.68,17.6Z"/><path class="cls-67" d="M45.21,90.21a1,1,0,0,0,.47,1.33,2.78,2.78,0,0,0,2.76.07c.58-.3.31-.83,1.31-.75a7.94,7.94,0,0,0,2.9-1.18c.69-.48,1.33-1.93,1-2.48s-3.94-.27-5.68,1.09A22.88,22.88,0,0,1,45.21,90.21Z"/><path class="cls-68" d="M48.88,87.93l.52.18,0-.31L50,88v-.36l.5.15v-.37l.72.65-.65-.2v.37L50,88.06v.33l-.59-.21-.06.46ZM49,88l.33.47,0-.34Zm.46-.15,0,.25.53.18V88ZM50,87.7V88l.45.16v-.32Zm.51.1.43.13-.44-.4Z"/><path class="cls-67" d="M51.48,92.7A1,1,0,0,0,52,94a2.77,2.77,0,0,0,2.76,0c.58-.32.29-.84,1.3-.79A7.63,7.63,0,0,0,58.9,92c.68-.48,1.29-1.95,1-2.5s-4-.18-5.66,1.22A22.82,22.82,0,0,1,51.48,92.7Z"/><path class="cls-68" d="M55.09,90.33l.53.17,0-.3.54.16V90l.5.14v-.37l.73.63-.66-.19,0,.38-.51-.16v.33l-.6-.2,0,.46Zm.15.11.33.45,0-.33Zm.46-.17,0,.25.53.17v-.27Zm.54-.19v.3l.45.15v-.32Zm.5.09.44.12-.45-.39Z"/><path class="cls-69" d="M49.22,79.64c0,2.59-.56,9.6-.85,10.82s-3.29,1-3.27.13c0-1.42.23-8.2.31-11.1.07-2.37-1.62-10.74-1.48-13.4,0-1.12,4,.64,4,.64l.83,2.49S49.25,77.5,49.22,79.64Z"/><path class="cls-69" d="M54.43,64.57a4.88,4.88,0,0,1-4.19,1.21,16,16,0,0,1-6.39-2.48c-.12,3.76.22,3.46.22,3.46s3.87,2.33,5.5,4.78c.79,1.2,1.71,7.18,1.71,8.46,0,4.56,0,11.6.11,12.9.07,1,3,1.07,3.51.1s.38-11,.4-13.3C55.35,75.05,54.43,64.57,54.43,64.57Z"/><path class="cls-70" d="M54.91,51.37c.55,0,1-.11,1.29-.12.19,0,1.15-.2.84.1a2.7,2.7,0,0,1-1.32.53s3-.09,3.05.33c0,.25-1.65.22-2.22.22.7,0,2.55.18,2.51.43s-1.55.16-2.4.13c.84,0,2.31.14,2.28.36s-1.56.14-2.43.08c.4,0,1.46.18,1.44.37s-1.61,0-3-.2c-.14,0-.57-.12-1-.16a3.76,3.76,0,0,0-.22-1.93C54.24,51.49,54.74,51.38,54.91,51.37Z"/><path class="cls-23" d="M44.63,43.21c2.58.09,1.71,1.73,1.71,1.73s-.08,2,0,3.66A5.32,5.32,0,0,0,46.61,51a52.16,52.16,0,0,0,7,.56h.21A3.76,3.76,0,0,1,54,53.44a1.94,1.94,0,0,0-.41,0c-1,0-6.71.43-8.9-.14-.87-.23-1.47-2.43-1.79-4.26a22.89,22.89,0,0,1-.24-2.43C42.58,45.23,43.19,43.16,44.63,43.21Z"/><path class="cls-71" d="M51.2,39.75A4.13,4.13,0,0,1,52.81,37s.57,3.7-1,4.84-1.26,1.94-1.26,1.94-2.8,1.14-3.94-.86a7.42,7.42,0,0,0,.28-1.33A2.74,2.74,0,0,0,51.2,39.75Z"/><path class="cls-21" d="M42.83,46.91c.07-1.55.47-3.13,1.65-3.7a3.19,3.19,0,0,1,1-.34,2.28,2.28,0,0,1,.93,0v0l1.79.58a23.58,23.58,0,0,1,2.4.35,4.86,4.86,0,0,0,.59.38,4,4,0,0,0,.86.51c1.15.4,1.85.43,1.89,1.18.31,4.82.21,11.79.35,16.21.18,5.7,2.18,17.55,1.9,18.7-.36,1.48-2.63,2.62-5.32,2.65-2.28,0-5.17.07-7.18-2.15-.3-.33.2-9-.21-15.94-.16-2.73.6-5.34.55-8.11,0-1.68-.35-2.35-.6-4.55C43.16,49.75,42.76,48.46,42.83,46.91Z"/><path class="cls-72" d="M54.7,80.64c.28-1.19-1.77-13.4-2-19.28-.14-4.53,0-11.66-.35-16.63,1,.31,1.55.4,1.59,1.08.31,4.82.21,11.79.35,16.21.18,5.7,2.18,17.55,1.9,18.7-.36,1.48-2.63,2.62-5.32,2.65-.5,0-1,0-1.57,0C52.06,83.3,54.33,82.14,54.7,80.64Z"/><path class="cls-73" d="M51.53,34.52a4.23,4.23,0,0,0-4.6.71,4.58,4.58,0,0,0-.18,6.18c1.32,1.45,4.69.34,5.41-1.9l.32.11a4.8,4.8,0,0,0,.21-1.85c.28,0,.35.67.35.67a6.3,6.3,0,0,0,.1-1.62c.31.1.3.83.3.83S54.16,35.57,51.53,34.52Z"/><path class="cls-70" d="M66.19,46.37c.41-.38.68-.68.93-.91s.77-.87.71-.45a2.59,2.59,0,0,1-.69,1.24s2.29-2,2.58-1.67-1.14,1.22-1.59,1.58c.58-.41,2.09-1.47,2.23-1.25s-1.11,1.1-1.79,1.61c.68-.49,1.88-1.35,2-1.15S69.45,46.46,68.74,47c.34-.21,1.24-.78,1.34-.63s-1.22,1.05-2.42,1.72c-.12.07-.51.26-.85.48a3.74,3.74,0,0,0-1.39-1.35C65.75,46.89,66.07,46.49,66.19,46.37Z"/><path class="cls-23" d="M52,45.67c1.25-1.17,2.51.26,2.51.26s1.18,1.59,2.28,2.88a13.55,13.55,0,0,0,2.87,2.52,57.45,57.45,0,0,0,5.6-4,1.07,1.07,0,0,0,.16-.14,3.74,3.74,0,0,1,1.39,1.35,3.15,3.15,0,0,0-.33.25c-.73.64-4.77,4.61-6.84,5.54-.82.38-3.8-1.84-5.21-3.06-.7-.6-1.28-1.17-1.59-1.49C51.91,48.77,51,46.66,52,45.67Z"/><path class="cls-23" d="M50.56,43.6s-3.11-.23-3.86-.87l-.84.1s.29.75,1.76,1.26a7.65,7.65,0,0,0,3.57,0Z"/></g></g></svg>