<svg xmlns="http://www.w3.org/2000/svg" xmlns:xlink="http://www.w3.org/1999/xlink" viewBox="0 0 360.48 342.28"><defs><style>.cls-1{isolation:isolate;}.cls-2{fill:#f7cfcf;}.cls-2,.cls-20,.cls-26{mix-blend-mode:multiply;}.cls-3{fill:#ff7a7a;}.cls-4{fill:#ffceca;}.cls-5{fill:#311e69;}.cls-6{fill:#ff6161;}.cls-7{fill:#4cb4d4;}.cls-8{fill:#3585b7;}.cls-9{fill:#ed7272;}.cls-10{fill:#ffebeb;}.cls-11{fill:#fff;}.cls-12{fill:#fff7f7;}.cls-13{fill:#ff988c;}.cls-14{fill:#614cd4;}.cls-15{fill:#c2bcf7;}.cls-16{fill:#a198eb;}.cls-17{fill:#ffd96e;}.cls-18{fill:#d8b45b;}.cls-19{fill:#1e1240;}.cls-20{fill:url(#_4);}.cls-21{fill:#8174f7;}.cls-22{fill:#dedcff;}.cls-23{fill:#ff9791;}.cls-24{fill:#d95f76;}.cls-25{fill:#ad263d;}.cls-27{fill:url(#_4-2);}.cls-28{fill:#f2b6ae;}</style><linearGradient id="_4" x1="-314.49" y1="28.36" x2="-309.83" y2="28.36" gradientTransform="matrix(-1, -0.02, -0.02, 1, -239.35, -0.46)" gradientUnits="userSpaceOnUse"><stop offset="0" stop-color="#fff"/><stop offset="0.09" stop-color="#f2eef6"/><stop offset="0.39" stop-color="#cbbfdb"/><stop offset="0.65" stop-color="#af9cc8"/><stop offset="0.86" stop-color="#9e87bc"/><stop offset="1" stop-color="#987fb8"/></linearGradient><linearGradient id="_4-2" x1="283.83" y1="28.85" x2="283.42" y2="32.3" gradientTransform="matrix(1, 0, 0, 1, 0, 0)" xlink:href="#_4"/></defs><title>bg_welcome</title><g class="cls-1"><g id="Layer_2" data-name="Layer 2"><g id="Layer_1-2" data-name="Layer 1"><ellipse class="cls-2" cx="182.1" cy="290.73" rx="138.25" ry="24.46"/><path class="cls-3" d="M146.59,222.86c-.52-1.75-15.14-88-56.22-123.86S45.3,62.48,45.3,62.48s-5.87,198.6,74,188.3S146.59,222.86,146.59,222.86Z"/><path class="cls-4" d="M128.46,249.47C120.89,225,112.7,198.42,108,182.63c-2.21-7.44-6.15-17-11-27.52l18-24.49c-.57-1-1.15-2-1.74-3L95.47,151.83c-5.11-10.82-11.07-22.47-17-33.68L88,96.91l-2.51-2.17-8.94,19.87C64.25,91.74,52.33,71.28,48.16,64.19a11.88,11.88,0,0,0-2.86-1.71s0,1.07-.06,3c2.8,4.77,9.82,16.8,18.15,31.79L45.58,92c0,1.1.08,2.22.13,3.36l19.88,5.87c5.13,9.28,10.64,19.48,15.91,29.68l-33.67-4.28c.1,1.07.21,2.16.32,3.24l35.12,4.47c6.79,13.27,13,26.34,17.4,37.16l-28.1,2.4L52.2,159.64c.25,1.48.52,3,.8,4.44l14.63,10.27L55.32,175.4c.24,1,.47,2.09.72,3.13l45.85-3.91c1.23,3.23,2.27,6.22,3.07,8.91,1.83,6.17,4.2,14,6.85,22.69l-45.5,4.46q.66,1.55,1.35,3.06l45.1-4.42c3.88,12.69,8.29,27,12.52,40.63Z"/><path class="cls-3" d="M116.77,243c-.85-1.11-35.23-58.61-74.48-72.76S0,156.66,0,156.66,50.94,300,105,270.45,116.77,243,116.77,243Z"/><path class="cls-4" d="M111.23,267c-12.19-15.33-25.42-32-33.14-42A168.17,168.17,0,0,0,62.6,208.39l6-22.46c-.68-.56-1.38-1.11-2.07-1.66l-6,22.21c-6.65-6.31-14.13-13-21.51-19.3l.92-17.8-2.39-.85-.86,16.65C21.64,172.27,7.46,161,2.52,157.09A9.72,9.72,0,0,0,0,156.66s.27.77.8,2.18c3.32,2.63,11.67,9.26,21.77,17.64L8.41,177.67l1,2.36,15.81-1.33c6.24,5.19,13,10.94,19.59,16.75l-25.21,6.29L20.75,204,47,197.41c8.53,7.58,16.62,15.17,22.73,21.68L50.39,228.6l-18.5-4.54c.6,1,1.2,2,1.81,2.95L47,230.27l-8.49,4.16c.46.69.92,1.36,1.39,2L71.49,221c1.78,2,3.36,3.81,4.67,5.5,3,3.9,6.88,8.82,11.19,14.29L56.12,256.55c.61.61,1.21,1.22,1.82,1.81l30.94-15.67c6.3,8,13.41,16.94,20.22,25.5Z"/><path class="cls-3" d="M227.65,207.73c1-1.25,40.08-66.66,84.73-82.76s48.1-15.4,48.1-15.4S302.54,272.58,241,239,227.65,207.73,227.65,207.73Z"/><path class="cls-4" d="M234,235c13.86-17.44,28.91-36.44,37.7-47.78a192.09,192.09,0,0,1,17.62-18.85l-6.85-25.55,2.36-1.89,6.77,25.26c7.56-7.17,16.08-14.73,24.46-21.95L315,124l2.72-1,1,18.95c17.18-14.68,33.32-27.52,38.94-31.95a11,11,0,0,1,2.86-.49s-.31.88-.91,2.48c-3.78,3-13.27,10.54-24.76,20.06l16.11,1.36c-.38.87-.76,1.77-1.16,2.68l-18-1.52c-7.09,5.92-14.78,12.45-22.28,19.06l28.67,7.16-1.28,2.53L307,155.92c-9.7,8.62-18.9,17.25-25.85,24.66l22.05,10.82,21-5.17c-.68,1.12-1.36,2.24-2.06,3.36L307,193.3,316.7,198l-1.58,2.31-36-17.65c-2,2.23-3.82,4.33-5.31,6.26-3.44,4.43-7.83,10-12.72,16.24l35.51,18c-.68.7-1.37,1.39-2.06,2.06l-35.2-17.83c-7.16,9.08-15.25,19.28-23,29C235.55,236,234.74,235.5,234,235Z"/><path class="cls-5" d="M276.63,135.43c-.47.83-5.45.82-6.3.55-.5-.16-.05-.68.41-1.08-1.54.79-3.44,1.81-3.51,2.34-.11.87,9,.85,10.47,0,.78-.45.23-1.4-.49-2.47A2.08,2.08,0,0,0,276.63,135.43Z"/><path class="cls-6" d="M273.13,133.23a1.42,1.42,0,0,1,0,.61c-.05.11-1.36.54-2.38,1.06-.46.4-.91.92-.41,1.08.85.27,5.83.28,6.3-.55a2.08,2.08,0,0,1,.58-.66,5.36,5.36,0,0,1-.11-1.49A20,20,0,0,1,273.13,133.23Z"/><path class="cls-5" d="M294.2,135.43c-.47.83-5.45.82-6.3.55-.49-.16,0-.68.41-1.08-1.54.79-3.44,1.81-3.5,2.34-.11.87,8.95.85,10.46,0,.79-.45.24-1.4-.49-2.47A2.21,2.21,0,0,0,294.2,135.43Z"/><path class="cls-6" d="M288.31,134.9a4.52,4.52,0,0,0,2.12-2.58,7.69,7.69,0,0,0,4,.28,2.48,2.48,0,0,0,.36,2.17,2.21,2.21,0,0,0-.58.66c-.47.83-5.45.82-6.3.55C287.41,135.82,287.85,135.3,288.31,134.9Z"/><path class="cls-7" d="M295.78,68.84a21.55,21.55,0,0,0-5.08-13.71,72.23,72.23,0,0,1-9.25-.28c-1-.1-2-.23-3-.39A9.28,9.28,0,0,0,268,61c-.24.82-.49,1.67-.74,2.56-5.24,18.19,3.64,64,5.64,69.94a10.71,10.71,0,0,0,6.67-.3c-.06-5.67-1.17-25.86-.45-42.78.45-10.65.74-20.53,1.42-20.49,1.41.08.4,10.32.46,19.57a110.52,110.52,0,0,0,8.71,42.95c.49,1.75,6.47.75,6.47.75S295.93,72.6,295.78,68.84Z"/><path class="cls-8" d="M276.74,74.68c-.65,3.46-.12,5-.19,8.4s-3.39,5.36-2.17,9.47,3.12,5.93,1.83,9-2.29,7.53-1,10.73-2.66,6.84-1.14,11.18c1,2.88,1.17,7.59,1.16,10.44a9.66,9.66,0,0,0,4.33-.68c-.06-5.67-1.17-25.86-.45-42.78.43-10.31.72-19.89,1.35-20.46A6.63,6.63,0,0,0,276.74,74.68Z"/><path class="cls-5" d="M277.5,68.56c5.74-3.25-5.52-6.35-9.53-7.31-.22.75-.45,1.53-.68,2.34a34.69,34.69,0,0,0-.85,3.89C268.56,69.09,272.72,71.27,277.5,68.56Z"/><path class="cls-8" d="M283,31.74S265.76,31.2,263,28.85s-3.4-8.38-6.84-7.92-.31,10.17,2.58,13.25S273.92,40.25,278,40,283,31.74,283,31.74Z"/><path class="cls-5" d="M279.44,33.75s-5.68,1.24-8.35,5.39A30.36,30.36,0,0,0,278,40a3,3,0,0,0,1.59-.55Z"/><path class="cls-8" d="M296.21,133.23s-.28-60.63-.43-64.39a21.55,21.55,0,0,0-5.08-13.71c-1.87.06-4,.06-6.13-.05-.32,3.68-.39,8.11.75,10.22a22.18,22.18,0,0,1,2.8,13.38c-.62,4.81-1.62,11.16-.13,17s4.17,7.41,3.24,13.09,0,15.6,0,15.6a55.1,55.1,0,0,0,1,9.09A22.5,22.5,0,0,0,296.21,133.23Z"/><path class="cls-7" d="M295.33,63.88c.95-3.68-5.1-15-3.9-25.21.28-2.45.5-6-3.73-6.7-3.41-.58-7-.92-11.51,3.67-2.88,2.91-.33,7-2.42,11.7-1.71,3.84-7.7,8.76-6.73,17.2C267.76,70.86,294.16,68.39,295.33,63.88Z"/><path class="cls-9" d="M317.63,281.79l-28.38-209a1.22,1.22,0,0,0-1.35-1,1.16,1.16,0,0,0-1,1.32l.65,4.8H261.41l-.69-5.08a1.21,1.21,0,0,0-1.34-1,1.17,1.17,0,0,0-1,1.32l16.94,124.52a1.34,1.34,0,0,0-.05.35,1.24,1.24,0,0,0,.18.6l11.32,83.51a1.21,1.21,0,0,0,1.2,1.05h.14a1.16,1.16,0,0,0,1-1.32L286,258.58h26.12l3.15,23.49a1.23,1.23,0,0,0,1.21,1.05h.14A1.16,1.16,0,0,0,317.63,281.79ZM280.6,219h25.69a1.16,1.16,0,0,0,.42-.08l2.38,17.5H283Zm12.32-101.44H266.8l-2.37-17.42h26.12Zm.33,2.39,2.37,17.42H269.5l-2.37-17.42Zm2.69,19.81,2.37,17.42H272.19l-2.37-17.42Zm2.7,19.81L301,177H274.89l-2.37-17.42Zm2.69,19.81,2.37,17.42H277.58l-2.37-17.42Zm2.7,19.81,2.37,17.44-.16,0h-26l-2.37-17.42ZM287.86,80.28l2.37,17.43H264.11l-2.37-17.43Zm-2.19,175.91-2.37-17.42h26.12l2.37,17.42Z"/><path class="cls-10" d="M157.6,206.9s17.63,45.51,20.75,67.3,20.28,14.93,25.65-1.15,3.84-60.91,3.84-60.91Z"/><path class="cls-11" d="M151.36,39.47S131,29.82,117.12,36.54,90.63,88.88,97.25,119s12.44,51.18,12.44,51.18S93,261,95.69,284s7.81,26.79,15.36,25.71c20.57-2.95,29.85-36.14,34.94-63.29,3.6-19.24,12-24.58,18.34-25.59,46.37-7.34,55.08,5.67,59.43,39.58,3.34,26-4.24,41.42,7.65,44s32.11-26.72,32.3-58.81-12.86-60.74-9-74.72,23.09-101.33,9.07-124.25-44.08-7.2-44.08-7.2-12.9-13.82-36.79-12.35C168.75,28,151.36,39.47,151.36,39.47Z"/><path class="cls-12" d="M254.69,170.89c3.84-14,23.09-101.33,9.07-124.25s-44.08-7.2-44.08-7.2-3,8.89-11.81,10.5-17,1.17-20.14,3.75,5.62,7.46,18.82,7.68,33.67,3.78,37.28,11.74-12.1,38.3-11.37,63.85-57.81,32.64-51,44.51,43,13.11,56,30.4c10.68,14.24.31,69.66-6.23,92.49l.21.06c11.9,2.61,32.11-26.72,32.3-58.81S250.85,184.87,254.69,170.89Z"/><path class="cls-12" d="M170.15,91.93c-.4-9.22-18.24-17.47-24.36-17.79-2.38-.12-4.66.93-6.28,4.24-5.17,10.58.72,64.94,8.69,68.74C158.75,152.17,171,112.16,170.15,91.93Z"/><path class="cls-12" d="M160.79,177.93s-27.39-2-34.8-5.35-9.53,3.67-3.16,9.89,27.82,13.78,38.72,12.48S169.43,178.7,160.79,177.93Z"/><path class="cls-12" d="M177.65,51.85c-2.87-2.09-6.91-16.29-10.91-20.47a104.35,104.35,0,0,0-15.38,8.09c1.26,4.36,15.2,12.88,15.2,12.88C172.46,56.27,180.8,54.15,177.65,51.85Z"/><path class="cls-10" d="M263.71,245.61c.19-32.08-12.86-60.74-9-74.72s23.09-101.33,9.07-124.25a24.63,24.63,0,0,0-13.54-11c2.23,2.55,4.09,5.74,3.74,9.07-.81,7.72-21.62,1.34-18.66,7.71S248,59.8,254.54,72.24s.06,57-3.69,73.41-58,25.13-43.64,31.75,36.47,18.14,44.91,35.33c7.33,14.94-10.54,72.26-12.93,89.74C250.49,295.38,263.56,271.39,263.71,245.61Z"/><path class="cls-12" d="M204.85,214.34c-10.2-5.64-58.43-8.16-68.23,13.4s-11.39,58.57-25.42,62.65c-6.45,1.88-11.61-1-15.31-4.72,2.71,21.51,7.8,25.07,15.16,24,20.57-2.95,29.85-36.14,34.94-63.29,3.6-19.24,12-24.58,18.34-25.59,33.5-5.3,47.34,0,54.09,16.16C216.06,227.81,211.47,218,204.85,214.34Z"/><circle class="cls-13" cx="85.9" cy="214.56" r="7.38" transform="translate(-142.68 248.69) rotate(-76.67)"/><circle class="cls-6" cx="87.72" cy="214.56" r="7.38" transform="translate(-141.28 250.47) rotate(-76.67)"/><path class="cls-12" d="M91.32,214.56a3.6,3.6,0,1,1-3.6-3.6A3.6,3.6,0,0,1,91.32,214.56Z"/><path class="cls-5" d="M55.78,300.54a1.19,1.19,0,0,0-.61.17,2.89,2.89,0,0,1,0,4.47,1.3,1.3,0,0,0,.61.17c.92,0,1.67-1.08,1.67-2.41S56.7,300.54,55.78,300.54Z"/><path class="cls-14" d="M61.63,300.35a18.77,18.77,0,0,0-11.1-.49L37.9,303.17v6H69.47v-6Zm-5.85,5c-.93,0-1.68-1.08-1.68-2.41s.75-2.4,1.68-2.4,1.67,1.08,1.67,2.4S56.7,305.35,55.78,305.35Z"/><polygon class="cls-15" points="56.69 306.75 86.05 214.25 95.78 214.25 66.42 306.75 56.69 306.75"/><polygon class="cls-16" points="59.73 306.75 89.09 214.25 98.83 214.25 69.47 306.75 59.73 306.75"/><polygon class="cls-15" points="95.78 214.25 72.36 140.63 62.62 140.63 86.05 214.25 95.78 214.25"/><polygon class="cls-16" points="98.83 214.25 75.4 140.63 65.66 140.63 89.09 214.25 98.83 214.25"/><path class="cls-9" d="M269.51,340.81,242.23,110.3a1.32,1.32,0,1,0-2.62.31l.63,5.29H211.43l-.67-5.6a1.32,1.32,0,1,0-2.62.31L224.43,248a1.21,1.21,0,0,0-.06.38,1.33,1.33,0,0,0,.18.66l10.88,92.12a1.32,1.32,0,0,0,1.31,1.16h.15a1.32,1.32,0,0,0,1.16-1.46l-3-25.6h28.81l3,25.91a1.31,1.31,0,0,0,1.3,1.16h.16A1.31,1.31,0,0,0,269.51,340.81Zm-39.63-69.3h28.33a1.51,1.51,0,0,0,.47-.09L261,290.73H232.16Zm15.54-111.9H216.61l-2.28-19.22h28.81Zm.31,2.63L248,181.46H219.2l-2.28-19.22Zm2.6,21.86,2.27,19.21H221.79l-2.28-19.21ZM250.92,206l2.28,19.22H224.38L222.1,206Zm2.59,21.85L255.79,247H227L224.7,227.8Zm2.59,21.86,2.28,19.23-.17,0H229.57l-2.28-19.21ZM240.55,118.54l2.28,19.22H214l-2.28-19.22Zm-5.8,194-2.28-19.22h28.81l2.28,19.22Z"/><path class="cls-17" d="M228.83,83.16s-.93-4.81-3.6-4.62-4.7,7.51-7.23,9.58S212.37,98.24,214.56,99s3.47-1.67,5.12-.81,1,2.63,2.8,2.1,1.11-3,3.46-2.78,5,.48,5-1.27S228.83,83.16,228.83,83.16Z"/><path class="cls-18" d="M221.9,87.63A85.35,85.35,0,0,0,216.45,99c1.17-.42,2.12-1.34,3.23-.76s1.16,1.59,1.66,2a6.81,6.81,0,0,0-.07-.74C221,97.42,224,84.9,221.9,87.63Z"/><path class="cls-18" d="M225,91.29c-1.08.93-1,5.13-.94,7.3a1.66,1.66,0,0,1,1.9-1.07c.4,0,.82.09,1.23.12C226.85,94.66,226,90.4,225,91.29Z"/><path class="cls-7" d="M250.72,120.73,238,103.19l-8.49-17.13a2.65,2.65,0,0,0-3.07-1.39,2,2,0,0,0-1.38,1.1c-.67,1.68,2.13,16.92,6.6,24.4s9,16.2,9,16.2Z"/><path class="cls-8" d="M250.72,120.73,238,103.19l-6-12.11c.27,2,.78,6.19,1.05,9.31.2,2.46,0,7.77-.14,11.88,4,6.92,7.73,14.1,7.73,14.1Z"/><path class="cls-5" d="M229.81,200.52a6.47,6.47,0,0,1-1.05-3.14,25.83,25.83,0,0,0-3.84,2.22,9.06,9.06,0,0,1-2,1.19c-1.63.87-3.65,2-3.71,2.56-.1.94,9.6.75,11.2-.19C231.21,202.67,230.61,201.66,229.81,200.52Z"/><path class="cls-5" d="M253.36,222.17l-.35-1.95-3.24.22-.46.91s-4.25,2.2-3,3.88c-.08.43,7.47.94,8.38-.29C255.37,224.08,253.36,222.17,253.36,222.17Z"/><path class="cls-7" d="M237.05,147.7a57.73,57.73,0,0,0,10.22.81c4.37,0,8.17-.34,9.9-.5.19.72,1.32,6.31,1.56,7.11,1.87,6-2.21,22.39-2.52,30-.1,2.47,4.61,25.63,1.1,35.12-.32.87-1.88,1.61-5,1.36-1.2-.1-3.53-1.38-3.64-2.58-.69-7.28-5-35.28-5-50.65-4.25-.94-13-.18-12.46,3.13,1.79,10.84.7,30-4.24,29.84-9.62-.31-7-32.1-6.82-33.17C221.92,159.07,236.11,150,237.05,147.7Z"/><path class="cls-5" d="M234.87,150a12.08,12.08,0,0,0,10,4.52c2.15-.17-.84-3.47-3.88-6.33-1.33-.12-2.64-.3-3.91-.53A9.81,9.81,0,0,1,234.87,150Z"/><path class="cls-6" d="M246.58,118.77s-.45-2.8-.75-4c-.26-1-.61-1.5-1.1-1.74-1.07-.5-1.75,6.14-1.26,6.41S246.58,118.77,246.58,118.77Z"/><path class="cls-6" d="M242.31,111.41a6.08,6.08,0,0,0-1,2.1,2.55,2.55,0,0,0,1.42,3c.79.26,2.87-.77,2.73-2.36S242.31,111.41,242.31,111.41Z"/><path class="cls-7" d="M237.05,147.7l.8-6.31a12.55,12.55,0,0,0-1.15-7.14c-1.69-3.44-3.63-9.72-.33-12.69,4.37-3.94,14.35-5.26,16.33,2.35,1.1,4.22,1.1,14,4.47,24.1.75,2.26-1.5,5.53-5.76,6.54C240.85,157.05,237.05,147.7,237.05,147.7Z"/><path class="cls-5" d="M246.19,116.52c2.72-1.07,3.27-6.56,1.53-7.53-8.17-4.51-4.94,4.36-4.63,5S245,117,246.19,116.52Z"/><path class="cls-6" d="M242.65,114a.88.88,0,0,1,.38-.88c.49-.29.8.34.42,1.22S242.66,115,242.65,114Z"/><path class="cls-14" d="M216.58,131.14h-8l3.67,13h0a11.63,11.63,0,0,0,8.68,0h0l3.67-13Z"/><ellipse class="cls-5" cx="216.58" cy="131.14" rx="8.01" ry="2.45"/><path class="cls-14" d="M208.57,131.7h0a.55.55,0,0,1-.54-.56c0-.11.35-10.88,8-11.07s9,10.56,9.11,11a.54.54,0,0,1-.47.61.55.55,0,0,1-.62-.48c0-.1-1.35-10.05-7.83-10.05H216c-6.61.17-6.91,9.9-6.92,10A.55.55,0,0,1,208.57,131.7Z"/><path class="cls-6" d="M220,122.23a1.85,1.85,0,0,0-.09-2c-.53-.85-2.76-2.4-4.27-1.26-1.75,1.32,1.5,1.68,2,3.19C217.62,122.13,218.3,123.44,220,122.23Z"/><path class="cls-6" d="M226.15,86.15c-.33-.07-.69-1.09-.82-1.59a2.56,2.56,0,0,0-1.11-1.62c-.36-.21.31-.54.8-.17s1,1.31,1,.78.24-2.45,1.36-2.91c.94-.39.61,3.21.77,4.79C228.19,85.43,228.19,86.59,226.15,86.15Z"/><path class="cls-7" d="M238,120.88c-4,1.21-6.26,5.07-11.83,13.37-3.1-3.41-3.12-10.75-5.69-13.3-1.75-1.73-2.75-.41-2.75-.41-3.82,10.64,3.13,22.64,7.45,23,8.74.74,14-12.52,15-15.84C240.78,125.46,241.44,119.81,238,120.88Z"/><path class="cls-8" d="M257.17,148c-3.37-10.13-3.37-19.88-4.47-24.1-1.16-4.48-5.1-5.87-9-5.44,1.06,2.93,4.57,12.9,5.06,16.72.53,4.15,3.1,14.07-3.88,19.37a13.09,13.09,0,0,0,6.57,0C255.67,153.54,257.92,150.27,257.17,148Z"/><path class="cls-5" d="M248.7,111.11s.82,6.42,2.83,7.76,7.3,3.36,5.53,9.69-10.87,5.91-13.44,2.06-1.39-20-1.39-20Z"/><path class="cls-19" d="M252.4,125.11c2.43-.71,2.62-2.7,2.42-4.1,1.8,1.48,3.31,3.73,2.24,7.55-1.76,6.33-10.87,5.91-13.44,2.06-1.76-2.64-1.76-11-1.59-16C243.9,120.19,249.12,126.07,252.4,125.11Z"/><path class="cls-8" d="M258.73,155.12c-.24-.8-1.37-6.39-1.56-7.11-1.26.11-3.61.32-6.48.43-.44,3-.57,6.24.24,8.54,2,5.55-1.24,7.62-6.65,6.51l-.61-.13h0a20.21,20.21,0,0,0-3-.29,25.75,25.75,0,0,0-15.51,4.82c-2.14,1.68-3.3.72-3,4,.22,2.61-.28,21.08,2.68,28.78a4.09,4.09,0,0,0,2.14.69c4.94.15,6-19,4.24-29.84-.54-3.25,7.92-4,12.24-3.18,1.82,6.72,6.72,18.14,6.94,20.64.26,3,1.13,23,.76,32.31a4.25,4.25,0,0,0,1.18.33c3.15.25,4.71-.49,5-1.36,3.51-9.49-1.2-32.65-1.1-35.12C256.52,177.51,260.6,161.17,258.73,155.12Z"/><path class="cls-8" d="M239.39,129.77a1.6,1.6,0,0,0-.56-.18c-3.66-.53-6.09,6-6.09,6s-3.3,3.14-5.46,3.51-3.76-.94-6.43-4-2-6.08-2.62-9.74a5.16,5.16,0,0,0-1.15-2.77c-2.31,10.07,4,20.58,8.06,20.92C232.58,144.18,237.49,134.66,239.39,129.77Z"/><polygon class="cls-5" points="1.26 303.73 1.26 309.17 29.61 309.17 50.75 309.17 50.75 277.69 1.26 303.73"/><polygon class="cls-14" points="22.15 277.94 1.26 303.73 29.66 303.73 50.75 277.69 22.15 277.94"/><path class="cls-14" d="M66.27,300.54a1.22,1.22,0,0,0-.61.17,2.87,2.87,0,0,1,0,4.47,1.33,1.33,0,0,0,.61.17c.93,0,1.68-1.08,1.68-2.41S67.2,300.54,66.27,300.54Z"/><path class="cls-5" d="M72.13,300.35A18.81,18.81,0,0,0,61,299.86L48.4,303.17v6H80v-6Zm-5.86,5c-.92,0-1.67-1.08-1.67-2.41s.75-2.4,1.67-2.4,1.68,1.08,1.68,2.4S67.2,305.35,66.27,305.35Z"/><circle class="cls-13" cx="92.36" cy="214.56" r="7.38" transform="translate(-135.12 267.65) rotate(-79.85)"/><circle class="cls-6" cx="94.19" cy="214.56" r="7.38" transform="translate(-132.71 273.08) rotate(-80.76)"/><path class="cls-12" d="M97.78,214.56a3.6,3.6,0,1,1-3.59-3.6A3.59,3.59,0,0,1,97.78,214.56Z"/><path class="cls-8" d="M98.15,54.47c4.68-1.74,10.14-9.88,6.9-16.7-2.46-5.18-10,8.88-9.64,10.8S96.69,55,98.15,54.47Z"/><path class="cls-15" d="M113.46,23.12S91.59,38.55,84.94,43.21,64,68.91,65.63,72.48s6.72,6.85,10,4.71S90.21,53.18,94,49.4c4.19-4.18,23.22-21.47,23.22-21.47Z"/><path class="cls-16" d="M94,49.4c4.19-4.18,23.22-21.47,23.22-21.47l-1.84-2.36a45.14,45.14,0,0,1-3.48,3c-2.59,1.92-7,3.3-10.36,7.36S86.79,47.63,85.11,51.53,72.3,69,74.46,75.37a4.15,4.15,0,0,0,1.23,1.8C79.05,74.89,90.23,53.17,94,49.4Z"/><path class="cls-5" d="M110.65,25.1,113,31.75l4.2-3.82-3.76-4.81Z"/><path class="cls-5" d="M133.64,37.81,126.83,25.6,122.52,29l10.2,9.64a.94.94,0,0,0,.19.75,1,1,0,0,0,1.34.17,1,1,0,0,0,.17-1.35A1,1,0,0,0,133.64,37.81Z"/><path class="cls-15" d="M110.47,19.81A22.54,22.54,0,0,1,121,11.66a2.81,2.81,0,0,1,3.25.9l4.67,6a4.79,4.79,0,0,1,.11,5.75l-.08.12a18.39,18.39,0,0,1-8,6.23l-.14.05a4.77,4.77,0,0,1-5.55-1.49l-4.71-6A2.84,2.84,0,0,1,110.47,19.81Z"/><path class="cls-6" d="M71.13,29.67,70,32.33a1.75,1.75,0,0,0,1.07,2.21,4.8,4.8,0,0,0,2.14.26c.79,0,1.25-.75,1.34-1.77a9.45,9.45,0,0,0-.36-3.25C73.78,28.27,72,28,71.13,29.67Z"/><path class="cls-20" d="M70,32.33l0-.09a1.73,1.73,0,0,0,1.14,1.44,4.82,4.82,0,0,0,2.14.26c.64,0,1.06-.49,1.24-1.2a2.81,2.81,0,0,1,0,.29c-.09,1-.55,1.74-1.34,1.77a4.8,4.8,0,0,1-2.14-.26A1.75,1.75,0,0,1,70,32.33Z"/><path class="cls-6" d="M70.57,31.53l-2.21,4.53c.94,2.13,5,1,4.74.29l-1.73-4Z"/><path class="cls-5" d="M70.66,33.91a1.78,1.78,0,0,1-1.56-1.37c-.27-1.26-.62-3.27-.16-4.09s1.4-2.28,3-2.33c5.37-.15,2.31,5.23,1.85,5.47S72.34,34.1,70.66,33.91Z"/><path class="cls-19" d="M73.64,26.32c.13,1,.29,2.9-.4,3.36a5.12,5.12,0,0,1-4.52-.22,13.6,13.6,0,0,0,.38,3.08,1.78,1.78,0,0,0,1.56,1.37c1.68.19,2.68-2.09,3.14-2.32S76.56,27.29,73.64,26.32Z"/><path class="cls-6" d="M73.81,31.85s.14-1-.39-.74-.36,1.58-.13,1.71S73.74,32.37,73.81,31.85Z"/><path class="cls-5" d="M73.58,138.29l.36-1.13-5.16-.34,1,2.36s-2.35,2.23-1.6,3.24c1,1.42,9.86.83,9.77.33C77.93,140.38,73.58,138.29,73.58,138.29Z"/><path class="cls-7" d="M75.53,70s-13.32-1.15-13.32-1.66c-5.09,0-6.53-1-8.55-1.22-.22.77-1.52,1.27-2.09,6.08-.79,6.79,5.81,35,5.81,35S53.49,127,51,135c-.68,2.15,8.89,4.37,10.84,1.09,3.76-6.3,4.66-12.18,5.76-25.72.8-9.88-.61-15-2.09-20.95,0,0,4,9.45,4.84,16.83,1,8.3-3.2,25.31-5,31.91-.42,1.57,1.61,2.33,6.62,1.7a12,12,0,0,0,2.47-.58,3.5,3.5,0,0,0,2.24-2.45c1.5-5.72,6.35-24.85,6.35-32C83.05,93.28,75.53,70,75.53,70Z"/><path class="cls-8" d="M75.53,70s-13.32-1.15-13.32-1.66c-5.09,0-6.53-1-8.55-1.22-.21.74-1.44,1.25-2,5.63C54.91,74,68,78.75,73,84.88c3.14,3.88,4,20.14,2.83,24.38-1,3.64-1.23,8.86-6.06,8.34a190.19,190.19,0,0,1-4.37,20.54c-.42,1.57,1.61,2.33,6.62,1.7a12,12,0,0,0,2.47-.58,3.5,3.5,0,0,0,2.24-2.45c1.5-5.72,6.35-24.85,6.35-32C83.05,93.28,75.53,70,75.53,70Z"/><path class="cls-19" d="M78.51,80.13c-.81-3-1.56-5.55-2.11-7.36L64,76S71.43,80.47,78.51,80.13Z"/><path class="cls-7" d="M79.09,74.78a114.81,114.81,0,0,1-1.23-11.87c-.15-2.22,6.27-15.08,3.86-19.66-5-9.55-17.7-10-22.09-6.86-5.87,4.19-7.84,19.57-7.51,33C55.36,76.31,74.64,78.75,79.09,74.78Z"/><path class="cls-8" d="M81.72,43.25a15.29,15.29,0,0,0-5.1-5.64c.38,4-2.93,10.38-3.5,13-.78,3.59-4,12.31-5.29,16.44a52.57,52.57,0,0,0-1.47,9.27c5.38.72,10.66.27,12.73-1.58a114.81,114.81,0,0,1-1.23-11.87C77.71,60.69,84.13,47.83,81.72,43.25Z"/><path class="cls-5" d="M58.77,137.22l.36-1.12-3.78-.26-.4,2.27s-2.36,2.23-1.61,3.24c1.06,1.43,9.87.83,9.77.33C63.11,139.32,58.77,137.22,58.77,137.22Z"/><path class="cls-8" d="M57.38,108.17S53.49,127,51,135c-.68,2.15,8.89,4.37,10.84,1.09,3.76-6.3,4.66-12.18,5.76-25.72a52.34,52.34,0,0,0-1.6-19c-.23-.79-.41-1.44-.47-1.77C65.66,91.72,66,109.18,57.38,108.17Z"/><path class="cls-8" d="M66,91.38l-.48-1.93s0,.09,0,.16C65.58,89.94,65.76,90.59,66,91.38Z"/><path class="cls-8" d="M65.5,89.42v0Z"/><path class="cls-8" d="M65.52,89.61c0-.07,0-.13,0-.16v0A.6.6,0,0,0,65.52,89.61Z"/><path class="cls-7" d="M77.22,38s18.51,8.13,22,9.19,4.08,8.24-6.45,8S78.73,53,77.37,50.1C76.24,47.65,77.22,38,77.22,38Z"/><path class="cls-19" d="M77.28,49.88s-.87,4.56,2.6,6.37c.53-1.53,1.06-3.18,1.49-4.8Z"/><path class="cls-16" d="M129,18.72a1.94,1.94,0,0,1-.11,1.21c-1.08,2.31-4.58,3.12-4.95,4.7a3.68,3.68,0,0,1-3,2.89c-1.68.44-2.56-.79-4.3-.33a7.76,7.76,0,0,1-3,0l1.58,2a4.77,4.77,0,0,0,5.55,1.49l.14-.05a18.39,18.39,0,0,0,8-6.23l.08-.12A4.78,4.78,0,0,0,129,18.72Z"/><path class="cls-8" d="M88.19,50.75c-4.23-.64-8.9-3.37-11.36-5a12.5,12.5,0,0,0,.54,4.34C78.73,53,82.26,55,92.79,55.22c8.16.19,9.65-4.09,8.27-6.51C97.78,49.9,92.4,51.39,88.19,50.75Z"/><rect class="cls-14" x="47.38" y="111.32" width="3.14" height="27.99"/><rect class="cls-14" x="80.8" y="111.32" width="3.14" height="27.99" transform="translate(164.75 250.63) rotate(180)"/><path class="cls-5" d="M30.68,138.75h70a0,0,0,0,1,0,0v4.9A4.37,4.37,0,0,1,96.28,148H35.05a4.37,4.37,0,0,1-4.37-4.37v-4.9A0,0,0,0,1,30.68,138.75Z"/><rect class="cls-5" x="30.68" y="111.32" width="3.14" height="27.99"/><rect class="cls-5" x="63.69" y="78.31" width="3.14" height="69.17" transform="translate(178.15 47.63) rotate(90)"/><rect class="cls-5" x="97.51" y="111.32" width="3.14" height="27.99"/><rect class="cls-5" x="64.09" y="112.37" width="3.14" height="27.99"/><path class="cls-8" d="M127.14,213.48c8.65-.4,14.37,13.6,14.37,13.6s8.48-12.35,15.22-14.85c0,0,7.83,3.87,6.39,10.93-.9,4.41-10.06,16.69-22.47,18.68-6.25,1-8.55-5.63-10.52-10.27C127,224.19,123.68,213.64,127.14,213.48Z"/><path class="cls-7" d="M135.24,318.54a6.53,6.53,0,0,0,1-3.15l3.5,0a3.32,3.32,0,0,0,.36,2.14,4.9,4.9,0,0,0,2,1.14c1.64.84,3.67,1.91,3.74,2.47.12.94-9.53.95-11.14.05C133.89,320.7,134.47,319.69,135.24,318.54Z"/><path class="cls-7" d="M112.07,318.54a6.53,6.53,0,0,1-1-3.15l-3.5,0a3.32,3.32,0,0,1-.36,2.14,4.9,4.9,0,0,1-2,1.14c-1.64.84-3.67,1.91-3.74,2.47-.12.94,9.53.95,11.14.05C113.42,320.7,112.84,319.68,112.07,318.54Z"/><path class="cls-7" d="M137.93,249.63a83.19,83.19,0,0,1-21.4.76c-.22.83-3.84,2-4.13,2.87-6.93,22.46-4.91,63-4.91,63s2,0,3.94,0a3.46,3.46,0,0,0,3.36-2.6c2.53-10,11.62-45.74,12.67-49.68l2.87,49.56a2.64,2.64,0,0,0,2.63,2.5c1.23,0,6.08,0,7.33,0,0,0,3.66-48.76.68-58.31C140.13,255.08,139,252.27,137.93,249.63Z"/><path class="cls-8" d="M112.4,253.26c.29-.92,3.91-2,4.13-2.87a91.5,91.5,0,0,0,9.15.36l-2.15,12a38.34,38.34,0,0,0-7.41,10.44c-1.76,3.93,0,19.87,1.37,29.92l-2.7,10.65a3.46,3.46,0,0,1-3.36,2.6c-1.9,0-3.94,0-3.94,0S105.47,275.72,112.4,253.26Z"/><path class="cls-5" d="M109.93,264c.37-2.16.79-4.25,1.27-6.25l16.26,4.5S118.72,265.45,109.93,264Z"/><path class="cls-5" d="M111.88,206.51c.48-1.29,3.84-3,4.44-.46.22.92-.77,1.58-1.58,2.08l.11.07c1,.83.55,4.5-.63,4.48s-2.24-2.32-2.24-2.32A5.46,5.46,0,0,1,111.88,206.51Z"/><path class="cls-7" d="M104.89,225.73c1.77-7,5.32-12.14,20.76-12.61,5.41-.17,10.18,3.42,10.53,8.83,1.36,21,3.83,20.87,4.59,33.27-2.37,10.79-30.94,6.51-30.86,5C110.78,245.19,102.65,234.63,104.89,225.73Z"/><path class="cls-8" d="M104.89,225.73c1.29-5.15,3.55-9.27,10.73-11.29a28.58,28.58,0,0,0,.31,7.21c.91,4.59,6.12,16.26,5.57,21-.46,3.92,3.68,11.35,2.66,19.64-7.33.05-14.29-1.37-14.25-2.1C110.78,245.19,102.65,234.63,104.89,225.73Z"/><path class="cls-7" d="M119.47,247.4s-5,.47-6.13,0c0,0-.23,6.87,3,7.49S120.1,249.51,119.47,247.4Z"/><path class="cls-6" d="M113.55,210.73l.59,5.2c.29.66,4.65.84,5.3-.47.19-.38-.19-1-.79-1.51l-3.4-2.91Z"/><path class="cls-21" d="M142.06,268.4c6.74-4.35,17.21-41.28,25.56-62.88.31-.81,3-.49,4.28-2.7,3.12-5.29,3.21-7.72,4.51-11.14a7.64,7.64,0,0,0-2.91-9.09c-1.53-1-3.14-1.63-4.37-1.1-3.25,1.42-9.9,15.42-9.57,17.57s2.37,2.2,1.94,3.62S140.1,248.75,135.11,258,139.33,270.16,142.06,268.4Zm-5.12-12.24c1.27-2.64,3.4-4.25,4.75-3.6s1.41,3.32.14,5.95-3.4,4.25-4.75,3.6S135.67,258.79,136.94,256.16Z"/><path class="cls-14" d="M140.24,267.42c6.74-4.35,17.2-41.28,25.56-62.88.31-.8,3-.49,4.28-2.7,3.12-5.28,3.21-7.72,4.51-11.14a7.63,7.63,0,0,0-2.92-9.09c-1.52-1-3.13-1.63-4.36-1.09-3.26,1.41-9.91,15.41-9.57,17.56s2.37,2.2,1.94,3.62-21.4,46.08-26.39,55.29S137.51,269.18,140.24,267.42Zm-3.3-11.26c1.27-2.64,3.4-4.25,4.75-3.6s1.41,3.32.14,5.95-3.4,4.25-4.75,3.6S135.67,258.79,136.94,256.16Z"/><path class="cls-21" d="M136.94,256.16c1.27-2.64,3.4-4.25,4.75-3.6a1.77,1.77,0,0,1,.86,1.08c-1.32,0-3.05,1.46-4.15,3.74a7,7,0,0,0-.72,4.87,1.55,1.55,0,0,1-.6-.14C135.73,261.46,135.67,258.79,136.94,256.16Z"/><path class="cls-15" d="M168.56,177.86l2.66,3.2a8.15,8.15,0,0,1,1.18,8l-3,8.16c-1.18,3.24-4.13,5.28-7.14,4.9l-.13,0a16.59,16.59,0,0,1-7.71-3.62Z"/><path class="cls-22" d="M168.56,177.86s-3.61-2.06-5-1.88-1,1.1-2,2.06-2.51,1.13-3.07,1.83-1.33,4.81-1.65,6.33.06,1.22-1,2.48-1.43.43-1.52,2.33-2.33,5.68.45,7.68,8.11-.15,8.39-1.46c.07-.34.63-1.57,1.4-3.28.21-.47,2.4.16,2.4.16s-.54-4.43,0-5.91c.23-.57,1.21,0,1.21,0a19.89,19.89,0,0,1-.06-3.19c.21-.65.4-1.29.56-1.9s1.51.2,1.51.2a16.42,16.42,0,0,1-1-2.5C169.33,179.44,169.19,178.36,168.56,177.86Z"/><path class="cls-5" d="M133.08,250.39s-6.17.91-11.15-.49-12.83-9.29-13.37-15.34S133.08,250.39,133.08,250.39Z"/><path class="cls-5" d="M115.93,211.62l-1.85.48a3.43,3.43,0,0,0,2,1.51,3.25,3.25,0,0,0,2.08-.09Z"/><path class="cls-6" d="M113.78,208.6l.16,3a1.82,1.82,0,0,0,2,1.58,4.93,4.93,0,0,0,2.12-.73c.73-.38.83-1.26.45-2.26a10.18,10.18,0,0,0-1.81-2.87C115.61,206.09,113.81,206.64,113.78,208.6Z"/><path class="cls-5" d="M114.08,209.77c.32-.2.21.15.65.39s.65.11,1.6-.74a2.61,2.61,0,0,1,1.43-.69c.27.43,1,.89,1.17,1.43.39,1,.18,2.29-.54,2.68a5.74,5.74,0,0,1-2.36.59,2.11,2.11,0,0,1-2.09-1.84l-.09-1.61A1.07,1.07,0,0,1,114.08,209.77Z"/><path class="cls-19" d="M113.94,211.59l0-.33a2.88,2.88,0,0,1,1.14.36,4.36,4.36,0,0,0,2.65.51c.37-.19.41-.48.87-.58.25-.06.42-.41.52-.71a2,2,0,0,1-.71,2,5.74,5.74,0,0,1-2.36.59A2.11,2.11,0,0,1,113.94,211.59Z"/><path class="cls-11" d="M116.3,210.06a5.16,5.16,0,0,0,1.35-.9s.38.49.2.88S116.91,210.53,116.3,210.06Z"/><path class="cls-5" d="M114,207.41a3.66,3.66,0,0,0,0,1.75c.27.51.43.71.31.92s-.79,0-1-.55S112.84,207.51,114,207.41Z"/><path class="cls-6" d="M114.05,210a3,3,0,0,1-.35-.43c-.19-.29-.56-.68-.85-.18-.42.74.72,2.25,1.52,1.88C115,211,114.39,210.34,114.05,210Z"/><path class="cls-7" d="M111.32,221.82c4.68,1.73,11.94,11.68,17.19,15.1,1.24.81,2.54,1.46,3.82.72,4.8-2.77,16.16-7.06,21.69-6.28,0,0,3,6.36-1.58,11.89-2.89,3.45-14.78,10.67-26.64,6.52-6-2.09-18-13.64-20.49-18C102,226.19,108.07,220.61,111.32,221.82Z"/><path class="cls-6" d="M152.13,233a5.55,5.55,0,0,1,2.46-3,3.09,3.09,0,0,0,1.11-.91c.36-.81.88.26.19,1.18-.33.45-.45,1,0,.68s2.79-2.17,2.82-1c.05,2.15-2.08,4-4.44,4.55C153.24,234.76,151.82,233.84,152.13,233Z"/><path class="cls-8" d="M107.91,222.42a13.22,13.22,0,0,0-1.55,3.9c-.11,1.64,1.87,7.27,4.76,9.14s8.52,7.93,13.48,9.3,2-1.34,7.55-.49,5.74,2.25,9.59-.31,5.27-5,9-4.89a4.67,4.67,0,0,0,4.28-2.44,10.82,10.82,0,0,1-2.56,6.62c-2.89,3.45-14.78,10.67-26.64,6.52-6-2.09-18-13.64-20.49-18A6.87,6.87,0,0,1,107.91,222.42Z"/><path class="cls-8" d="M134.32,274.79c-1.92,5.45-3.69,7.35-2.6,11.84s4.35,13.06,4.62,18.09c.16,2.9,2.48,3.95,4.43,4.31-.28,4.31-.48,7.05-.48,7.05-1.25,0-6.1,0-7.33,0a2.64,2.64,0,0,1-2.63-2.5l-2.87-49.56S136.23,269.35,134.32,274.79Z"/><path class="cls-6" d="M162.57,218.19c-.15-.7,1.27-1.87,1.36-3.6.09-1.94,1.32-3.09,1.63-2.61a4.59,4.59,0,0,1-.77,5.85C164.05,218.56,162.77,219.1,162.57,218.19Z"/><path class="cls-8" d="M189.15,44s11.23-5.09,8.91-10.93c-2-5.13-8.53,3.2-10.51,5.23S189.15,44,189.15,44Z"/><path class="cls-5" d="M192.42,35.07l3.67-20.47a2.47,2.47,0,0,1,1.51-1.86L204,10.13a.49.49,0,0,1,.66.54L200.8,32.6a1.19,1.19,0,0,1-.74.91l-6.39,2.58A.92.92,0,0,1,192.42,35.07Z"/><path class="cls-7" d="M186.28,52.24S202,51.79,208.57,59c8.37,9.28-12.83,26.93-19.42,24.8s-3.09-10.27-3.09-10.27l11.7-9s-17.66.2-20.7-3S182.23,50.72,186.28,52.24Z"/><path class="cls-8" d="M203.7,66.64c-1.59-3.27-.91-6.32-4.56-8.29s-5.93-.16-11.09-1.72a13.81,13.81,0,0,1-5.91-3.79c-3.69,1.82-7.26,6.31-5.08,8.63,3,3.24,20.7,3,20.7,3l-11.7,9s-3.51,8.14,3.09,10.27c4.67,1.51,16.67-6.91,20.29-15.25C207,68.84,204.46,68.2,203.7,66.64Z"/><path class="cls-5" d="M196.54,81.94l-5.69-9.55L190.42,84A13.91,13.91,0,0,0,196.54,81.94Z"/><path class="cls-8" d="M186.49,31.89s5.12.16,6,1.08-1,4.18-3.28,5S184.15,34.37,186.49,31.89Z"/><path class="cls-5" d="M185.89,108.29a6.09,6.09,0,0,0,.42-3.06l3.25-.56a3.06,3.06,0,0,0,.66,1.93,4.75,4.75,0,0,0,2.08.74c1.65.52,3.69,1.2,3.85,1.71.25.84-8.69,2.35-10.32,1.77C185,110.51,185.36,109.48,185.89,108.29Z"/><path class="cls-7" d="M174.12,54.49s12.73,9.76,16.18,15.76,2.62,35.38-.46,35.82-7.68.35-10.24-6.06c-1.84-4.61-1.32-22.2-1.62-24.6s-19.51-5.8-17.27-15.74C161.94,54.26,174.12,54.49,174.12,54.49Z"/><path class="cls-5" d="M160.9,59.09a5.62,5.62,0,0,0-.19.58,6.93,6.93,0,0,0,1.62,6.19c3.31-.51,12.73-2.27,13-5.58C175.64,57.41,166.28,58.33,160.9,59.09Z"/><path class="cls-8" d="M190.3,70.25c-3-5.25-13.16-13.39-15.63-15.33.74,3.2,2.12,7.9,4.15,9.86,3.23,3.12,6.08,2.68,6.68,6.27s-.47,7,1.76,8.31-.45,6.23.1,12.72a18.28,18.28,0,0,1-4.24,12.76,9.17,9.17,0,0,0,6.72,1.23C192.92,105.63,193.74,76.26,190.3,70.25Z"/><path class="cls-8" d="M179.39,20.61s18,16.69,10.6,22.85c-4.71,3.9-13.35-6.57-14.79-10.82S179.39,20.61,179.39,20.61Z"/><path class="cls-7" d="M159.16,62.12c-10.53-7.31-2.67-29.86-2.19-35.64a9.9,9.9,0,0,1,8.2-9c7-1.17,12.52-.63,17.52,7.17,1.77,2.76-2.7,4.49-3.95,9.78-.63,2.67,1.19,14.8,7.7,16.47C195.52,53.25,163.38,67.22,159.16,62.12Z"/><path class="cls-5" d="M175.89,34.18a28.08,28.08,0,0,0,5.47,6.92c1.88-3.33,1.09-13.35,1.09-13.35Z"/><path class="cls-8" d="M186.44,50.93c-6.51-1.67-8.33-13.8-7.7-16.47,1.25-5.29,5.72-7,3.95-9.78-3-4.62-6.12-6.7-9.65-7.37a11,11,0,0,1,1,4.46c-.2,3.05-4.11,7.76-2.91,12.69s.14,8.31,2.92,12c1.82,2.4,6.34,7.19,9.23,10.2C187.58,54.17,189.75,51.77,186.44,50.93Z"/><path class="cls-5" d="M169.62,47.32c4.49,2.21,9.66.52,12-.47a19.74,19.74,0,0,1-1.82-4.18l-.12-.14-18-9.09S163.6,44.35,169.62,47.32Z"/><path class="cls-7" d="M163,20.21c3-.08,8.75,12.31,12.61,15.92,1.78,1.67,13.84-9.66,17.62-6.31.73.65,1.1,3.61.53,4.68C191,39.58,180.4,48.12,173,46.45c-6-1.35-13.89-13.13-14.46-21.13C158.44,23.29,158.76,20.31,163,20.21Z"/><path class="cls-8" d="M189.72,33.27c-.82,2.11-7.9,6.59-10.21,6.32s-3.88,1.22-6,2S168.65,39.07,168,36s-3.45-5.81-5.87-7.31c-2-1.24-2.33-5.87-2.38-7.4a5,5,0,0,0-1.12,4c.57,8,8.47,19.78,14.46,21.13,7.36,1.67,18-6.87,20.69-12a6.17,6.17,0,0,0-.17-4.11C191.92,31.15,190.14,32.19,189.72,33.27Z"/><path class="cls-6" d="M168.56,12.84l-.94,5c.09.69,4,2.09,5,1.07.28-.3.1-.94-.3-1.62L170,13.6Z"/><path class="cls-5" d="M170.5,14.34l-1.84-.09a3.29,3.29,0,0,0,1.41,2,3.16,3.16,0,0,0,1.94.51Z"/><path class="cls-6" d="M169.37,10.94l-.7,2.8a1.76,1.76,0,0,0,1.4,2,5,5,0,0,0,2.16-.07c.77-.15,1.12-.93,1.05-2a9.9,9.9,0,0,0-.85-3.16C171.78,9.15,170,9.14,169.37,10.94Z"/><path class="cls-5" d="M170.32,10.72A1.55,1.55,0,0,0,170,12c.06.85-.81.9-1,.52s-.45.48-.45.48l-.17.91a4.15,4.15,0,0,1-.74-2.5C167.76,9.44,170.69,10.11,170.32,10.72Z"/><path class="cls-6" d="M169.5,12.3a3.09,3.09,0,0,1-.09-.53c0-.34-.14-.84-.62-.55-.71.41-.48,2.21.37,2.29C169.79,13.57,169.63,12.73,169.5,12.3Z"/><path class="cls-6" d="M191.72,29.73a3.23,3.23,0,0,1,1.07-1.26c.8-.54.52-.8.6-1.19s.69-.3.67.62c0,.59-.48,1.08,0,.94s1.09-2.17,1.7-1.17c.8,1.34-.28,3.45-2.42,3.95C192.75,31.76,191.32,31.5,191.72,29.73Z"/><path class="cls-7" d="M173.28,13.74a8.54,8.54,0,0,0-.29-1.61s-.17.68-1.22.71a4.84,4.84,0,0,1-2.34-.86,5.17,5.17,0,0,1-.26,1.38,5.11,5.11,0,0,0-.38,1.36,1.76,1.76,0,0,0,1.28,1,5,5,0,0,0,2.16-.07C173,15.55,173.35,14.77,173.28,13.74Z"/><path class="cls-7" d="M167.93,13.1c-.34.28-.87-2.41-.48-3.67.21-.7,1.74-1.74,3.38-1.7s1.6,2.85,1.6,2.85-1.46-.65-3.44,1A6.92,6.92,0,0,0,167.93,13.1Z"/><path class="cls-8" d="M171,7.74a4.32,4.32,0,0,1,.09,1c0,.6-1.36.53-2.06,1.28a6.69,6.69,0,0,1-1.66,1c.07,1.15.38,2.29.61,2.1A6.92,6.92,0,0,1,169,11.57c2-1.64,3.44-1,3.44-1S172.5,7.91,171,7.74Z"/><path class="cls-8" d="M173.28,13.74a8.54,8.54,0,0,0-.29-1.61.89.89,0,0,1-.42.5,7,7,0,0,1,.07,1.26c0,.75-1,.1-1.42.36s.44.36.72.61-1.76.33-2.06.38-.7-.33-1.07-.63a.43.43,0,0,0,0,.11,1.76,1.76,0,0,0,1.28,1,5,5,0,0,0,2.16-.07C173,15.55,173.35,14.77,173.28,13.74Z"/><path class="cls-21" d="M251.21,7.36a14.79,14.79,0,0,1,8.64-4.85c5.55-.91,28.53-1.52,31-1.9L295.88,0s18.51,12.85,19.42,14.38S312.72,16,312.72,16,286.06,31.55,264.1,33.16C264.1,33.16,246.38,19.28,251.21,7.36Z"/><path class="cls-7" d="M285.35,214.47s-12.05,9.1-16.53,22.39,8.73,11.21,10.73,9.37,11.29-19,11.29-19Z"/><path class="cls-8" d="M286.12,216.26c-1.69,3.69-6.34,13.63-9.37,17.64-2.55,3.35-6.37,5.54-8.28,10.6,2.13,4.55,9.61,3.08,11.08,1.73,2-1.85,11.29-19,11.29-19Z"/><path class="cls-6" d="M287.67,318.19a5.33,5.33,0,0,1,1.71-2l-.34-1.05,3.54-.24v1.29a6.21,6.21,0,0,1-1.52,1.81C290,318.89,287.35,319.17,287.67,318.19Z"/><path class="cls-8" d="M283.19,320.4c0-.27.34-.5.53-.67s.24-.2.38-.31h0a49.91,49.91,0,0,1,5.28-3.2s-.86,1-.63,1.27c.66.77,3.83-1.27,3.83-1.27s2.58,2.92,1.88,3.87C293.47,321.42,283.1,320.87,283.19,320.4Z"/><path class="cls-6" d="M312.53,318.19a5.24,5.24,0,0,1,1.71-2l-.34-1.05,3.53-.24v1.29a6,6,0,0,1-1.52,1.81C314.87,318.89,312.21,319.17,312.53,318.19Z"/><path class="cls-8" d="M308.05,320.4c0-.27.34-.5.52-.67l.38-.31h0a49.68,49.68,0,0,1,5.29-3.2s-.87,1-.64,1.27c.66.77,3.83-1.27,3.83-1.27s2.59,2.92,1.89,3.87C318.33,321.42,308,320.87,308.05,320.4Z"/><path class="cls-23" d="M292,207.2s-2.11-1.72-1.45-3.75a2.49,2.49,0,0,1,3.76-1.2,2.72,2.72,0,0,1,1.29,1.73,2,2,0,0,1,1.4,1.24c.39,1,.79,3.84-.1,4.37S292,207.2,292,207.2Z"/><path class="cls-7" d="M307.85,252c12.74,42.86,11.59,64.21,11.59,64.21s-5.79.06-8.95,0a2.33,2.33,0,0,1-2.23-1.73C306,306.06,296.11,268.42,294.6,264c-.3-.87-.83-1.34-.83-.42,0,0,1,22.83,1.34,23.72,2.9,7.28,3.6,19.14,3.76,24.93a3.33,3.33,0,0,1-3.31,3.42c-2.21,0-4.95,0-6.37,0,0,0-11.19-43.84-6.79-62.66C283,250.31,307.58,251.11,307.85,252Z"/><path class="cls-5" d="M281.94,255.4a52.88,52.88,0,0,0-.51,5.66c4.07-.18,14-.9,17.79-3.71Z"/><path class="cls-24" d="M290.51,203.45a2.52,2.52,0,0,1,.22-.47,5.15,5.15,0,0,0,2.1,1.79,4,4,0,0,0,2.42,0,4,4,0,0,0,2,1.55c.23,1.24.28,2.88-.38,3.27-.89.52-4.9-2.39-4.9-2.39S289.85,205.48,290.51,203.45Z"/><path class="cls-7" d="M280.66,257.13c0-5.69,2-16.87,1.26-21-.69-3.87-2-9.24-1.26-14.21a10.29,10.29,0,0,1,5.77-8c7.46-3.46,21.86-2.95,24.53,4.63,1.07,3-5.15,15.88-4.62,20.48.44,3.87.74,4.42,1.79,13.94C304.3,255.34,293.17,262.25,280.66,257.13Z"/><path class="cls-8" d="M307.85,252c-.09-.3-3-.6-6.77-.75a37.52,37.52,0,0,0,1.24,8.34c2.49,7.68,10.17,19.69,7.77,25.81s-5.28,4-.48,10.57c2.84,3.91,3,13.28,2.72,20.28,3.16,0,7.11,0,7.11,0S320.59,294.87,307.85,252Z"/><path class="cls-8" d="M306.34,239c-.53-4.6,5.69-17.46,4.62-20.48-1.49-4.25-6.68-6.28-12.25-6.63-.11,3.26-.36,9.22-.95,11.77-.84,3.6-5.46,17.13-3.87,24.26a46.11,46.11,0,0,0,3.91,9.9,41.25,41.25,0,0,0,10.33-4.88C307.08,243.41,306.78,242.86,306.34,239Z"/><path class="cls-6" d="M296.45,208l1.55,4.62c0,.46-1.63,1.44-3,1.78-.68.17-1.87-.47-1.84-.77a3.25,3.25,0,0,1,.26-.91l1.74-3.8Z"/><path class="cls-5" d="M294.79,209.72l1.75-.32a3.24,3.24,0,0,1-1.1,2.07,3.1,3.1,0,0,1-1.79.73Z"/><path class="cls-6" d="M295.43,206.32l1,2.6a1.7,1.7,0,0,1-1.08,2.12,4.52,4.52,0,0,1-2.07.21c-.76,0-1.2-.74-1.26-1.74a9.31,9.31,0,0,1,.4-3.13C292.89,204.92,294.63,204.68,295.43,206.32Z"/><path class="cls-6" d="M295.48,207.64a3,3,0,0,0,0-.52c0-.33,0-.82.53-.61.73.31.74,2.06-.06,2.25C295.36,208.89,295.41,208.07,295.48,207.64Z"/><path class="cls-11" d="M293.82,208.36a4.74,4.74,0,0,1-1.51.14s0,.58.38.76S293.66,209.06,293.82,208.36Z"/><path class="cls-14" d="M254,278.36l52.13-71.21a13.94,13.94,0,0,1,5.2-4.31l14.87-7.13,1.08,1.61-13.55,8.8a13.82,13.82,0,0,0-3.86,3.76l-50.09,72.59a3.54,3.54,0,0,1-5,.88h0A3.54,3.54,0,0,1,254,278.36Z"/><path class="cls-25" d="M293,210.28c.84-.22,1.56,1,3-.29a2.22,2.22,0,0,0,.44-1.13l0,.06a1.7,1.7,0,0,1-1.08,2.12,4.52,4.52,0,0,1-2.07.21,1.17,1.17,0,0,1-1-.73A4.28,4.28,0,0,0,293,210.28Z"/><path class="cls-5" d="M313.71,206.12l13.55-8.8-.14-.22c-4.2.51-12.34,6.42-15.47,8.08-3.6,1.91-7.08,8.78-8.53,10.3s-10.68,17.46-15.37,21.4-6.12,7.83-9,11.66-10.57,15-12.45,18.38-2.92,5.41-5.81,7-1.92,2.16-3.84,5.76a7.17,7.17,0,0,1-2.61,3,3.52,3.52,0,0,0,.76.73h0a3.54,3.54,0,0,0,5-.88l50.09-72.59A13.82,13.82,0,0,1,313.71,206.12Z"/><path class="cls-5" d="M307.16,233.63c.59-2.14,1.39-4.53,2.12-6.79l-5.15-5.55s-1.17,4.44.48,8.12A17.71,17.71,0,0,0,307.16,233.63Z"/><path class="cls-6" d="M281.59,243.5c-1-.45-1.21-3.47-.6-4,1.63-1.5,2.84.21,3.73.8s1.07.74.64,2.29S283.9,244.59,281.59,243.5Z"/><path class="cls-5" d="M285.31,245s.08,3,4.08,5.64,13.69,1.28,16.58-1Z"/><path class="cls-7" d="M310,215.88c5.62,3.83,14.43,18.67,8,27.18-8.18,10.91-21.56,9.92-30.85,4.54-1.55-.9-4.34-5.1-2.86-6.58,4.1-4.12,21.27-1.09,23.87-4.07s-2.26-9.26-3.62-12.42C302,218.66,306.37,213.42,310,215.88Z"/><path class="cls-14" d="M332.25,199.77a13.59,13.59,0,0,1-1.95-.13c-2.41-.33-4-1.3-4.38-2.74s.37-3.09,2.23-4.66a21.73,21.73,0,0,1,15.06-4.37c2.41.33,4,1.3,4.39,2.74.83,2.86-3.28,6.48-9.36,8.25A22,22,0,0,1,332.25,199.77Zm9-11.07a21.16,21.16,0,0,0-5.72.87,18.93,18.93,0,0,0-6.77,3.4c-1.53,1.3-2.23,2.63-1.93,3.67s1.61,1.78,3.6,2.05a18.84,18.84,0,0,0,7.53-.75c5.38-1.57,9.36-4.8,8.7-7.07h0c-.3-1-1.61-1.78-3.59-2.05A13.25,13.25,0,0,0,341.26,188.7Z"/><path class="cls-15" d="M341.26,188.7a21.16,21.16,0,0,0-5.72.87,18.93,18.93,0,0,0-6.77,3.4c-1.53,1.3-2.23,2.63-1.93,3.67s1.61,1.78,3.6,2.05a18.84,18.84,0,0,0,7.53-.75c5.38-1.57,9.36-4.8,8.7-7.07h0c-.3-1-1.61-1.78-3.59-2.05A13.25,13.25,0,0,0,341.26,188.7Z"/><path class="cls-10" d="M329.42,194.76a.49.49,0,0,1-.55-.8,12,12,0,0,1,3.08-2.17c8.24-4,11-2,9-1.24s-3.28,1-6.76,2.2C332.69,193.28,330.81,194.11,329.42,194.76Z"/><path class="cls-7" d="M268.29,238.7s-6.42,17.19,3.79,16.21c4.38-.42,6.75-9.15,5.79-13C275.62,232.94,268.29,238.7,268.29,238.7Z"/><path class="cls-6" d="M274,252.55a5.6,5.6,0,0,1,.32-1.2c.31-.77.94-2.1,1.73-2.39,1.12-.41,3.93-.2,3.61.16s-2.76.6-2.76.6,2.73.45,3.32,1-.26,1.63-.89,1.91-3.44,2.21-4.65,2.06C273.85,254.58,273.89,253.34,274,252.55Z"/><path class="cls-8" d="M310,215.88a3.91,3.91,0,0,0-.75-.4c.15,1.64.64,4.87,2.26,6.73,2.24,2.56,4.72,4.56,4.56,8.24s1.36,11-3.92,13c-4,1.46-14.67,2.41-19.06,1.12-3.27-.95-7.17-2.5-9-3.23-.94,1.68,1.61,5.45,3.07,6.29,9.29,5.38,22.67,6.37,30.85-4.54C324.41,234.55,315.6,219.71,310,215.88Z"/><path class="cls-8" d="M290,265.18c-1.5,2.94-2.58,8.11-.42,11.83s3.79,2.94,2.17,7a23.89,23.89,0,0,0-.72,14.23c1.08,3.56,1.88,12.27,1.73,17.41h2.83a3.33,3.33,0,0,0,3.31-3.42c-.16-5.79-.86-17.65-3.76-24.93-.36-.89-1.34-23.72-1.34-23.72,0-.34.07-.48.17-.5S291.48,262.24,290,265.18Z"/><path class="cls-8" d="M291.43,38.67c.28-2.45.5-6-3.73-6.7-.72-.13-1.45-.23-2.2-.29a12.81,12.81,0,0,1,1.67,3.75c1.21,4.26,1,6.89-1.22,7.25s-3.6-2-4.77.46.75,5.12.9,8c.1,1.78,1.36,10.58,2.28,16.87,5.59-.68,10.48-2.21,11-4.09C296.28,60.2,290.23,48.87,291.43,38.67Z"/><path class="cls-14" d="M305.78,7l-1.68.59s4.86,5.78,4.25,6.67-9.43,1.85-15.92,2.32-7.13,3-10.78,3.89-3.11-1.2-4.94-2.75c-1.57-1.33-3.85-7.9-8.92-10-3.77-1.58-12.63-.14-16.93.7-3.47,11.68,13.24,24.77,13.24,24.77,22-1.61,48.62-17.19,48.62-17.19s3.49-.07,2.58-1.59C314.86,13.64,310.34,10.28,305.78,7Z"/><path class="cls-7" d="M286.51,35.4c-.14-2,.36-3.17,2.36-3.43,5.11-.67,15.32-2.66,16.09-4,.53-.9.05-13.52,2.68-14.39S314.36,25,312.93,31C311,39.2,293,40.26,289.24,40.7,287.3,40.93,286.68,38,286.51,35.4Z"/><path class="cls-15" d="M246.67,17.25c1.19-5.75,3.32-12.11,11-12.15C267,5,275,13,274.73,21.81s-10.4,14.82-22.1,9.86C246.46,29.05,245.94,20.77,246.67,17.25Z"/><path class="cls-21" d="M273.09,14.65a4.64,4.64,0,0,1,.17,1.93c-.33.81-1.31,7.24-3.24,9s-4.46,2.87-8.11,3.55-2.34,2.67-8.24.38a25.29,25.29,0,0,1-6.27-3.72,9.65,9.65,0,0,0,5.23,5.85c11.7,5,21.86-1.13,22.1-9.86A15,15,0,0,0,273.09,14.65Z"/><path class="cls-21" d="M250.18,27.51l8.11-.85a2.79,2.79,0,0,0,2.07-1.42c1.22-2,2-8.65-4.12-10.83a3.71,3.71,0,0,0-2.92.38l-5.68,3.34Z"/><path class="cls-15" d="M254.34,23.87a4.91,4.91,0,1,1-3.51-6A4.92,4.92,0,0,1,254.34,23.87Z"/><circle class="cls-21" cx="249.59" cy="22.64" r="4.08" transform="translate(23.42 130.58) rotate(-30.7)"/><path class="cls-7" d="M250.62,18.68l-.25-.05a24.44,24.44,0,0,0-4.8,3.31,4.08,4.08,0,1,0,5.05-3.26Z"/><path class="cls-5" d="M291.43,38.67c0-.15,0-.3.05-.46l-3.83-.39s-1,5.85,3.83,7.13A26.93,26.93,0,0,1,291.43,38.67Z"/><path class="cls-7" d="M246.81,20.9l-1.24,1s-4.31,5.39-5.67,8.54c-2.79,6.42-12.76,5.18-11.26,10.65,1.67,6.11,14.91-.23,18.17-10.65.58-1.86,4.23-4,4.23-4Z"/><path class="cls-8" d="M307.89,13.58a13.88,13.88,0,0,1,.62,2.68c.2,2.13-.31,6.9,1,9S306.93,28.82,306,31s-6.59,3-9.76,4.4c-2.37,1.06-5.22-1-7.76.63a2.76,2.76,0,0,0-.79,3.88,1.63,1.63,0,0,0,1.58.76C293,40.26,311,39.2,312.93,31,314.32,25.14,310.52,13.49,307.89,13.58Z"/><path class="cls-5" d="M284.47,23.19s2.34.23,3.27,1.69a4.17,4.17,0,0,1-2,6C282.65,32.31,280.53,24.58,284.47,23.19Z"/><path class="cls-5" d="M283,24.43a1.39,1.39,0,0,0-1.2.39c-.58.55-1.14,3.22.2,4.24s3.41-.42,3.47-1.69S283,24.43,283,24.43Z"/><path class="cls-6" d="M285.68,29.16l.05,3.91c0,.64-1.58,2.3-2.59,1.48-.3-.24.09-1.12.37-1.79l.77-3.35Z"/><path class="cls-5" d="M283.82,31.4a4.37,4.37,0,0,0,1.68-1.52h-1.33Z"/><path class="cls-6" d="M285.68,26.66l.24,1.5a2.25,2.25,0,0,1-1.76,2.58,1.93,1.93,0,0,1-2.31-1.82,4.64,4.64,0,0,1,1-2.84C283.61,24.81,285.29,25,285.68,26.66Z"/><path class="cls-6" d="M282.49,27.64a1.77,1.77,0,0,1,0-.4c0-.25,0-.63-.4-.47-.57.23-.58,1.58,0,1.73C282.57,28.61,282.54,28,282.49,27.64Z"/><path class="cls-11" d="M284.23,28.77a4.39,4.39,0,0,1-1.44-.19,1.78,1.78,0,0,0,.41.88C283.5,29.7,283.93,29.39,284.23,28.77Z"/><g class="cls-26"><path class="cls-27" d="M284,30.25a2.94,2.94,0,0,1-1.58-.44,3.15,3.15,0,0,1-.61-1,.2.2,0,0,1,0,.07,1.93,1.93,0,0,0,2.31,1.82,2.14,2.14,0,0,0,1.58-1.27A2.74,2.74,0,0,1,284,30.25Z"/></g><path class="cls-5" d="M283.51,26.37a5.48,5.48,0,0,0,.87.65c.35.21.39-.5.39-.5a9.42,9.42,0,0,1,.57,1.22c.1.38.52.17.61,0a4.88,4.88,0,0,0,.17-3.32c-.59-1.4-3-1.72-3.33-.67S282.31,25.79,283.51,26.37Z"/><path class="cls-6" d="M285.64,28.1a1.64,1.64,0,0,0,.1-.38c0-.25.16-.62.5-.37.5.35.21,1.67-.43,1.67C285.34,29,285.52,28.41,285.64,28.1Z"/><path class="cls-6" d="M308.6,14.92a.62.62,0,0,0,.24-.8A3.55,3.55,0,0,0,306.59,12c-1.73-.34-2.11-.09-2,.14s.91.32.95.49c0,0-.63-.21-.38.19s1.06.67,1.27,1.08.38,1.13,1.13,1.32A1.43,1.43,0,0,0,308.6,14.92Z"/><path class="cls-16" d="M30.16,291.83c-2.35,2.79-5.83,3.74-7.77,2.11s-1.61-5.22.74-8,5.83-3.74,7.77-2.11S32.51,289,30.16,291.83Z"/><path class="cls-15" d="M28.86,290.74c-2.1,2.49-5.2,3.34-6.94,1.88s-1.43-4.66.67-7.15,5.2-3.34,6.93-1.89S31,288.24,28.86,290.74Z"/><path class="cls-14" d="M23.43,289.69l-.14-1.89A2.08,2.08,0,0,0,23.43,289.69Z"/><path class="cls-15" d="M27.07,284.77l-1.44-14.89-3.66.35,1.32,17.57.14,1.89a1.23,1.23,0,0,0,.22.24c.8.68,2.24.29,3.21-.87a2.72,2.72,0,0,0,.59-3A3.31,3.31,0,0,1,27.07,284.77Z"/><path class="cls-14" d="M23.43,289.69l-.14-1.89A2.08,2.08,0,0,0,23.43,289.69Z"/><path class="cls-16" d="M27.45,286.08a3.31,3.31,0,0,1-.38-1.31l-1.44-14.89-1.08.1c0,.44,0,1-.06,1.65-.36,5.47-.33,9.35.61,11.33s.48,6.45-1.29,7.07c.82.51,2.14.11,3.05-1A2.72,2.72,0,0,0,27.45,286.08Z"/><circle class="cls-6" cx="23.27" cy="266.26" r="5.48"/><path class="cls-25" d="M24.5,260.93c.4,1.18,1.57,2.41,2.14,3.86.8,2-1.14.77-2.2,1.82s-.65,2.14-2.25,1.58-1-1.65-2.73-1.61a2.18,2.18,0,0,1-1.65-.61c0,.1,0,.2,0,.29a5.48,5.48,0,1,0,6.7-5.33Z"/><path class="cls-28" d="M22.46,261.14a5.37,5.37,0,0,0-3.08,1.94c-.84,1.45-.11,2.67,1.94,2.44S25.35,261.3,22.46,261.14Z"/></g></g></g></svg>